<?xml version="1.0" encoding="UTF-8" standalone="no"?>
<!-- Created with Inkscape (http://www.inkscape.org/) -->

<svg
   width="78.109261mm"
   height="72.276527mm"
   viewBox="0 0 78.109261 72.276527"
   version="1.1"
   id="svg1"
   inkscape:version="1.3.2 (091e20e, 2023-11-25)"
   sodipodi:docname="fig-2.svg"
   xmlns:inkscape="http://www.inkscape.org/namespaces/inkscape"
   xmlns:sodipodi="http://sodipodi.sourceforge.net/DTD/sodipodi-0.dtd"
   xmlns="http://www.w3.org/2000/svg"
   xmlns:svg="http://www.w3.org/2000/svg">
  <sodipodi:namedview
     id="namedview1"
     pagecolor="#ffffff"
     bordercolor="#000000"
     borderopacity="0.25"
     inkscape:showpageshadow="2"
     inkscape:pageopacity="0.0"
     inkscape:pagecheckerboard="0"
     inkscape:deskcolor="#d1d1d1"
     inkscape:document-units="mm"
     inkscape:zoom="0.2102413"
     inkscape:cx="494.66969"
     inkscape:cy="19.025757"
     inkscape:window-width="1312"
     inkscape:window-height="449"
     inkscape:window-x="0"
     inkscape:window-y="38"
     inkscape:window-maximized="0"
     inkscape:current-layer="layer1" />
  <defs
     id="defs1">
    <clipPath
       id="clip-0">
      <path
         clip-rule="nonzero"
         d="m 340,63.175781 h 19 V 83 h -19 z m 0,0"
         id="path283" />
    </clipPath>
    <clipPath
       id="clip-1">
      <path
         clip-rule="nonzero"
         d="m 336,63.175781 h 28 V 87 h -28 z m 0,0"
         id="path284" />
    </clipPath>
    <clipPath
       id="clip-2">
      <path
         clip-rule="nonzero"
         d="M 302.80469,170 H 326 v 28 h -23.19531 z m 0,0"
         id="path285" />
    </clipPath>
    <clipPath
       id="clip-3">
      <path
         clip-rule="nonzero"
         d="M 302.80469,208 H 326 v 27 h -23.19531 z m 0,0"
         id="path286" />
    </clipPath>
    <clipPath
       id="clip-4">
      <path
         clip-rule="nonzero"
         d="M 302.80469,245 H 326 v 23.42578 h -23.19531 z m 0,0"
         id="path287" />
    </clipPath>
    <clipPath
       id="clip-5">
      <path
         clip-rule="nonzero"
         d="M 302.80469,133 H 326 v 28 h -23.19531 z m 0,0"
         id="path288" />
    </clipPath>
    <clipPath
       id="clip-6">
      <path
         clip-rule="nonzero"
         d="m 332,98 h 76.52344 V 267 H 332 Z m 0,0"
         id="path289" />
    </clipPath>
    <clipPath
       id="clip-7">
      <path
         clip-rule="nonzero"
         d="m 442,62.808594 h 48 V 97 h -48 z m 0,0"
         id="path290" />
    </clipPath>
    <clipPath
       id="clip-8">
      <path
         clip-rule="nonzero"
         d="m 450,62.808594 h 32 V 89 h -32 z m 0,0"
         id="path291" />
    </clipPath>
    <clipPath
       id="clip-9">
      <path
         clip-rule="nonzero"
         d="M 419.23437,63 H 439 v 20 h -19.76563 z m 0,0"
         id="path292" />
    </clipPath>
    <clipPath
       id="clip-10">
      <path
         clip-rule="nonzero"
         d="M 419.23437,62.808594 H 443 V 87 h -23.76563 z m 0,0"
         id="path293" />
    </clipPath>
    <clipPath
       id="clip-11">
      <path
         clip-rule="nonzero"
         d="m 489,62.808594 h 28 V 87 h -28 z m 0,0"
         id="path294" />
    </clipPath>
    <clipPath
       id="clip-12">
      <path
         clip-rule="nonzero"
         d="M 419.23437,175 H 439 v 19 h -19.76563 z m 0,0"
         id="path295" />
    </clipPath>
    <clipPath
       id="clip-13">
      <path
         clip-rule="nonzero"
         d="M 419.23437,170 H 443 v 28 h -23.76563 z m 0,0"
         id="path296" />
    </clipPath>
    <clipPath
       id="clip-14">
      <path
         clip-rule="nonzero"
         d="M 419.23437,212 H 439 v 19 h -19.76563 z m 0,0"
         id="path297" />
    </clipPath>
    <clipPath
       id="clip-15">
      <path
         clip-rule="nonzero"
         d="M 419.23437,208 H 443 v 27 h -23.76563 z m 0,0"
         id="path298" />
    </clipPath>
    <clipPath
       id="clip-16">
      <path
         clip-rule="nonzero"
         d="M 419.23437,249 H 439 v 19 h -19.76563 z m 0,0"
         id="path299" />
    </clipPath>
    <clipPath
       id="clip-17">
      <path
         clip-rule="nonzero"
         d="M 419.23437,245 H 443 v 23.42578 h -23.76563 z m 0,0"
         id="path300" />
    </clipPath>
    <clipPath
       id="clip-18">
      <path
         clip-rule="nonzero"
         d="M 419.23437,138 H 439 v 19 h -19.76563 z m 0,0"
         id="path301" />
    </clipPath>
    <clipPath
       id="clip-19">
      <path
         clip-rule="nonzero"
         d="M 419.23437,133 H 443 v 28 h -23.76563 z m 0,0"
         id="path302" />
    </clipPath>
    <clipPath
       id="clip-20">
      <path
         clip-rule="nonzero"
         d="m 449,98 h 75.95703 V 267 H 449 Z m 0,0"
         id="path303" />
    </clipPath>
  </defs>
  <g
     inkscape:label="Layer 1"
     inkscape:groupmode="layer"
     id="layer1"
     transform="translate(26.458326,-143.93333)">
    <path
       fill="none"
       stroke-width="0.104031"
       stroke-linecap="butt"
       stroke-linejoin="miter"
       stroke="#ffffff"
       stroke-opacity="1"
       stroke-miterlimit="10"
       d="M -14.130743,203.88229 H 7.1447888 V 182.60675 H -14.130743 Z m 0,0"
       id="path2050" />
    <path
       fill="none"
       stroke-width="0.104031"
       stroke-linecap="butt"
       stroke-linejoin="miter"
       stroke="#ffffff"
       stroke-opacity="1"
       stroke-miterlimit="10"
       d="M -15.015443,208.06739 H 8.5490094 V 169.49886 H -15.015443 Z m 0,0"
       id="path2051" />
    <path
       fill="none"
       stroke-width="0.104031"
       stroke-linecap="butt"
       stroke-linejoin="miter"
       stroke="#ffffff"
       stroke-opacity="1"
       stroke-miterlimit="10"
       d="M -15.898766,212.2139 H 9.9532304 V 156.39096 H -15.898766 Z m 0,0"
       id="path2052" />
    <g
       clip-path="url(#clip-0)"
       id="g2053"
       transform="matrix(0.35277777,0,0,0.35277777,-133.41097,121.6451)">
      <path
         fill-rule="nonzero"
         fill="#ffffff"
         fill-opacity="1"
         d="m 358.90625,72.910156 c 0,-5.089844 -4.125,-9.214844 -9.21484,-9.214844 -5.08985,0 -9.21485,4.125 -9.21485,9.214844 0,5.089844 4.125,9.214844 9.21485,9.214844 5.08984,0 9.21484,-4.125 9.21484,-9.214844 z m 0,0"
         id="path2053" />
    </g>
    <g
       clip-path="url(#clip-1)"
       id="g2054"
       transform="matrix(0.35277777,0,0,0.35277777,-133.41097,121.6451)">
      <path
         fill="none"
         stroke-width="0.3985"
         stroke-linecap="butt"
         stroke-linejoin="miter"
         stroke="#000000"
         stroke-opacity="1"
         stroke-miterlimit="10"
         d="M 12.451203,-4.00338e-4 C 12.451203,6.877767 6.876878,12.452091 -0.00128885,12.452091 -6.879456,12.452091 -12.45378,6.877767 -12.45378,-4.00338e-4 c 0,-6.878167662 5.574324,-12.452491662 12.45249115,-12.452491662 6.87816685,0 12.45249185,5.574324 12.45249185,12.452491662 z m 0,0"
         transform="matrix(0.74,0,0,-0.74,349.69236,72.90986)"
         id="path2054" />
    </g>
    <g
       fill="#000000"
       fill-opacity="1"
       id="g2055"
       transform="matrix(0.35277777,0,0,0.35277777,-133.41097,121.6451)">
      <g
         id="use2054"
         transform="translate(347.36655,74.666618)">
        <path
           d="M 3.65625,-3.6875 3.203125,-2.421875 C 3.015625,-3.3125 2.5625,-3.78125 1.890625,-3.78125 c -0.328125,0 -0.703125,0.140625 -0.96875,0.375 -0.40625,0.34375 -0.625,0.875 -0.625,1.609375 0,1.171875 0.59375,1.890625 1.546875,1.890625 0.65625,0 1.125,-0.328125 1.4375,-0.984375 C 3.3125,-0.75 3.359375,-0.625 3.4375,-0.4375 3.640625,-0.015625 3.765625,0.09375 4,0.09375 c 0.234375,0 0.40625,-0.15625 0.5,-0.46875 0.0625,-0.15625 0.078125,-0.328125 0.09375,-0.734375 H 4.390625 C 4.375,-0.734375 4.234375,-0.46875 4.0625,-0.46875 c -0.25,0 -0.5,-0.390625 -0.578125,-0.890625 L 4.3125,-3.6875 Z M 3,-1.78125 2.828125,-1.296875 c -0.265625,0.75 -0.5625,1.109375 -0.921875,1.109375 -0.234375,0 -0.453125,-0.140625 -0.578125,-0.359375 -0.15625,-0.296875 -0.25,-0.765625 -0.25,-1.296875 0,-0.53125 0.109375,-0.984375 0.296875,-1.3125 0.125,-0.203125 0.296875,-0.3125 0.53125,-0.3125 0.515625,0 0.859375,0.421875 1,1.265625 z m 0,0"
           id="path33" />
      </g>
    </g>
    <path
       fill-rule="nonzero"
       fill="#ffffff"
       fill-opacity="1"
       stroke-width="0.104031"
       stroke-linecap="butt"
       stroke-linejoin="miter"
       stroke="#000000"
       stroke-opacity="1"
       stroke-dasharray="0.3985, 1.99255"
       stroke-miterlimit="10"
       d="m -6.7968234,160.47408 c 0,-1.79558 -1.4552084,-3.25079 -3.2507916,-3.25079 -1.795584,0 -3.250792,1.45521 -3.250792,3.25079 0,1.79559 1.455208,3.2508 3.250792,3.2508 1.7955832,0 3.2507916,-1.45521 3.2507916,-3.2508 z m 0,0"
       id="path2055" />
    <g
       fill="#000000"
       fill-opacity="1"
       id="g2056"
       transform="matrix(0.35277777,0,0,0.35277777,-133.41097,121.6451)">
      <g
         id="use2055"
         transform="translate(347.77206,112.54204)">
        <path
           d="m 1.953125,-5.0625 c -0.296875,0 -0.59375,0.125 -0.859375,0.34375 -0.5,0.40625 -0.78125,1.203125 -0.78125,2.234375 0,0.96875 0.25,1.734375 0.6875,2.15625 0.28125,0.265625 0.625,0.421875 0.953125,0.421875 0.28125,0 0.5625,-0.109375 0.84375,-0.34375 0.5,-0.40625 0.78125,-1.203125 0.78125,-2.1875 0,-1.015625 -0.234375,-1.765625 -0.6875,-2.1875 -0.28125,-0.28125 -0.625,-0.4375 -0.9375,-0.4375 z M 2.8125,-2.296875 C 2.796875,-1.453125 2.71875,-0.984375 2.5,-0.59375 2.375,-0.359375 2.125,-0.1875 1.953125,-0.1875 1.75,-0.1875 1.515625,-0.375 1.390625,-0.59375 1.1875,-0.984375 1.09375,-1.453125 1.078125,-2.296875 Z M 1.078125,-2.71875 C 1.09375,-3.515625 1.1875,-4 1.390625,-4.390625 c 0.125,-0.21875 0.375,-0.390625 0.5625,-0.390625 C 2.125,-4.78125 2.375,-4.609375 2.5,-4.390625 2.703125,-4 2.796875,-3.515625 2.8125,-2.71875 Z m 0,0"
           id="path32" />
      </g>
    </g>
    <path
       fill-rule="nonzero"
       fill="#ffffff"
       fill-opacity="1"
       stroke-width="0.104031"
       stroke-linecap="butt"
       stroke-linejoin="miter"
       stroke="#000000"
       stroke-opacity="1"
       stroke-miterlimit="10"
       d="m -6.7968234,173.58198 c 0,-1.79558 -1.4552084,-3.25079 -3.2507916,-3.25079 -1.795584,0 -3.250792,1.45521 -3.250792,3.25079 0,1.79559 1.455208,3.25217 3.250792,3.25217 1.7955832,0 3.2507916,-1.45658 3.2507916,-3.25217 z m 0,0"
       id="path2056" />
    <g
       fill="#000000"
       fill-opacity="1"
       id="g2057"
       transform="matrix(0.35277777,0,0,0.35277777,-133.41097,121.6451)">
      <g
         id="use2056"
         transform="translate(348.12579,148.07314)">
        <path
           d="m 0.40625,-2.984375 h 0.171875 c 0,0 0.015625,0 0.03125,0 0.09375,-0.046875 0.28125,0.09375 0.28125,0.203125 0,0.0625 -0.265625,1.109375 -0.515625,2.09375 C 0.171875,0.046875 0,0.75 -0.0625,0.953125 c -0.078125,0.34375 -0.171875,0.4375 -0.484375,0.4375 v 0.125 h 1.5 V 1.40625 c -0.34375,0 -0.46875,-0.078125 -0.46875,-0.21875 0,-0.109375 0.125,-0.6875 0.28125,-1.234375 0.171875,0.09375 0.3125,0.125 0.484375,0.125 1.078125,0 2.203125,-1.234375 2.203125,-2.40625 C 3.453125,-2.90625 3.140625,-3.25 2.609375,-3.25 2.125,-3.25 1.78125,-3.015625 1.34375,-2.421875 L 1.5625,-3.15625 1.578125,-3.21875 c 0,0 0,-0.015625 0,-0.03125 H 1.5625 c 0,-0.015625 -0.015625,-0.015625 -0.015625,-0.015625 L 1.53125,-3.25 0.390625,-3.09375 Z m 1.9375,0.046875 c 0.3125,0.015625 0.453125,0.203125 0.453125,0.640625 0,0.484375 -0.21875,1.109375 -0.53125,1.578125 -0.3125,0.4375 -0.671875,0.65625 -1.046875,0.65625 -0.203125,0 -0.359375,-0.109375 -0.359375,-0.265625 0,-0.25 0.265625,-1.21875 0.484375,-1.765625 0.203125,-0.5 0.625,-0.859375 1,-0.84375 z m 0,0"
           id="path21" />
      </g>
    </g>
    <path
       fill-rule="nonzero"
       fill="#ffffff"
       fill-opacity="1"
       stroke-width="0.104031"
       stroke-linecap="butt"
       stroke-linejoin="miter"
       stroke="#000000"
       stroke-opacity="1"
       stroke-miterlimit="10"
       d="m -6.7968234,186.69126 c 0,-1.79558 -1.4552084,-3.25217 -3.2507916,-3.25217 -1.795584,0 -3.250792,1.45659 -3.250792,3.25217 0,1.79558 1.455208,3.25079 3.250792,3.25079 1.7955832,0 3.2507916,-1.45521 3.2507916,-3.25079 z m 0,0"
       id="path2057" />
    <g
       fill="#000000"
       fill-opacity="1"
       id="g2058"
       transform="matrix(0.35277777,0,0,0.35277777,-133.41097,121.6451)">
      <g
         id="use2057"
         transform="translate(348.25897,185.68291)">
        <path
           d="m 0.59375,-2.28125 c 0.15625,-0.359375 0.25,-0.4375 0.59375,-0.4375 h 1.078125 l -2.28125,2.75 0.0625,0.0625 c 0.125,-0.09375 0.21875,-0.125 0.34375,-0.125 0.171875,0 0.421875,0.09375 0.765625,0.296875 0.375,0.234375 0.625,0.328125 0.828125,0.328125 0.375,0 0.6875,-0.265625 0.6875,-0.5625 0,-0.15625 -0.09375,-0.265625 -0.25,-0.265625 -0.15625,0 -0.25,0.109375 -0.25,0.234375 0,0.0625 0.015625,0.140625 0.0625,0.21875 0.015625,0.046875 0.03125,0.09375 0.03125,0.109375 0,0.0625 -0.078125,0.109375 -0.1875,0.109375 -0.1875,0 -0.28125,-0.046875 -0.515625,-0.359375 C 1.234375,-0.34375 1.09375,-0.4375 0.65625,-0.53125 L 2.796875,-3.078125 V -3.15625 h -2.09375 l -0.21875,0.84375 z m 0,0"
           id="path19" />
      </g>
    </g>
    <path
       fill-rule="nonzero"
       fill="#ffffff"
       fill-opacity="1"
       d="m -19.904723,186.69126 c 0,-1.79559 -1.455208,-3.25217 -3.25079,-3.25217 -1.795586,0 -3.250794,1.45658 -3.250794,3.25217 0,1.79558 1.455208,3.25079 3.250794,3.25079 1.795582,0 3.25079,-1.45521 3.25079,-3.25079 z m 0,0"
       id="path2058"
       style="stroke-width:0.352778" />
    <g
       clip-path="url(#clip-2)"
       id="g2059"
       transform="matrix(0.35277777,0,0,0.35277777,-133.41097,121.6451)">
      <path
         fill="none"
         stroke-width="0.3985"
         stroke-linecap="butt"
         stroke-linejoin="miter"
         stroke="#000000"
         stroke-opacity="1"
         stroke-dasharray="0.3985, 1.99255"
         stroke-miterlimit="10"
         d="m -37.759946,-150.63912 c 0,6.87816 -5.574324,12.45777 -12.452491,12.45777 -6.878168,0 -12.452492,-5.57961 -12.452492,-12.45777 0,-6.87817 5.574324,-12.4525 12.452492,-12.4525 6.878167,0 12.452491,5.57433 12.452491,12.4525 z m 0,0"
         transform="matrix(0.74,0,0,-0.74,349.69236,72.90986)"
         id="path2059" />
    </g>
    <g
       fill="#000000"
       fill-opacity="1"
       id="g2060"
       transform="matrix(0.35277777,0,0,0.35277777,-133.41097,121.6451)">
      <g
         id="use2059"
         transform="translate(310.0069,185.36766)">
        <path
           d="M 2.875,-3.6875 H 2.390625 v 3.390625 C 1.90625,-0.40625 1.703125,-0.703125 1.65625,-1.390625 l -0.140625,-1.25 C 1.484375,-3 1.453125,-3.140625 1.328125,-3.328125 1.15625,-3.609375 0.859375,-3.78125 0.5625,-3.78125 c -0.140625,0 -0.25,0.015625 -0.46875,0.09375 v 0.140625 c 0.46875,0.078125 0.546875,0.15625 0.609375,0.6875 L 0.8125,-1.65625 c 0.078125,0.859375 0.71875,1.546875 1.578125,1.671875 v 1.625 H 2.875 v -1.625 c 0.859375,-0.125 1.5,-0.8125 1.578125,-1.671875 l 0.09375,-1.203125 c 0.0625,-0.515625 0.140625,-0.59375 0.625,-0.6875 V -3.6875 C 4.9375,-3.765625 4.828125,-3.78125 4.703125,-3.78125 c -0.265625,0 -0.5625,0.15625 -0.734375,0.375 -0.140625,0.203125 -0.1875,0.375 -0.234375,0.765625 l -0.125,1.25 c -0.046875,0.6875 -0.25,0.984375 -0.734375,1.09375 z m 0,0"
           id="path30" />
      </g>
    </g>
    <path
       fill-rule="nonzero"
       fill="#c6c6c6"
       fill-opacity="1"
       stroke-width="0.104031"
       stroke-linecap="butt"
       stroke-linejoin="miter"
       stroke="#000000"
       stroke-opacity="1"
       stroke-miterlimit="10"
       d="m -6.7968234,199.79916 c 0,-1.79558 -1.4552084,-3.25079 -3.2507916,-3.25079 -1.795584,0 -3.250792,1.45521 -3.250792,3.25079 0,1.79558 1.455208,3.25079 3.250792,3.25079 1.7955832,0 3.2507916,-1.45521 3.2507916,-3.25079 z m 0,0"
       id="path2060" />
    <g
       fill="#000000"
       fill-opacity="1"
       id="g2061"
       transform="matrix(0.35277777,0,0,0.35277777,-133.41097,121.6451)">
      <g
         id="use2060"
         transform="translate(347.23407,223.0751)">
        <path
           d="m 0.125,-2.984375 h 0.140625 c 0,0 0.03125,0 0.0625,0 0.203125,-0.015625 0.28125,0.0625 0.328125,0.34375 0.09375,0.40625 0.1875,1.1875 0.203125,1.78125 l 0.03125,0.640625 C 0.90625,0.078125 0.921875,0.125 0.984375,0.125 1.0625,0.125 1.1875,-0.046875 1.453125,-0.5625 1.5,-0.640625 1.640625,-0.90625 1.859375,-1.296875 l 0.65625,-1.140625 0.21875,2.34375 C 2.75,0.109375 2.765625,0.125 2.8125,0.125 c 0.0625,0 0.140625,-0.0625 0.34375,-0.3125 0,0 0.03125,-0.046875 0.0625,-0.078125 1,-1.203125 1.5625,-2.125 1.5625,-2.609375 0,-0.21875 -0.171875,-0.375 -0.390625,-0.375 -0.171875,0 -0.28125,0.09375 -0.28125,0.25 0,0.09375 0.03125,0.15625 0.15625,0.265625 0.109375,0.109375 0.15625,0.1875 0.15625,0.265625 0,0.328125 -0.25,0.71875 -1.21875,1.921875 L 2.96875,-3.140625 C 2.96875,-3.21875 2.953125,-3.25 2.90625,-3.25 2.875,-3.25 2.859375,-3.234375 2.8125,-3.171875 l -1.40625,2.25 C 1.375,-1.453125 1.296875,-2.21875 1.21875,-2.734375 1.140625,-3.1875 1.125,-3.25 1.03125,-3.25 c -0.046875,0 -0.125,0.015625 -0.21875,0.046875 -0.078125,0.03125 -0.265625,0.0625 -0.5,0.09375 -0.03125,0 -0.109375,0.015625 -0.1875,0.03125 z m 0,0"
           id="path17" />
      </g>
    </g>
    <path
       fill-rule="nonzero"
       fill="#c6c6c6"
       fill-opacity="1"
       stroke-width="0.104031"
       stroke-linecap="butt"
       stroke-linejoin="miter"
       stroke="#000000"
       stroke-opacity="1"
       stroke-miterlimit="10"
       d="m 6.3124536,186.69126 c 0,-1.79558 -1.4565863,-3.25217 -3.25217,-3.25217 -1.7942058,0 -3.25079213,1.45659 -3.25079213,3.25217 0,1.79558 1.45658633,3.25079 3.25079213,3.25079 1.7955837,0 3.25217,-1.45521 3.25217,-3.25079 z m 0,0"
       id="path2061" />
    <g
       fill="#000000"
       fill-opacity="1"
       id="g2062"
       transform="matrix(0.35277777,0,0,0.35277777,-133.41097,121.6451)">
      <g
         id="use2061"
         transform="translate(385.33075,185.98112)">
        <path
           d="m 0.890625,0 c 0.390625,-1.25 0.515625,-1.578125 0.84375,-2.125 0.25,-0.421875 0.453125,-0.640625 0.578125,-0.640625 0.046875,0 0.078125,0.015625 0.125,0.09375 C 2.5,-2.546875 2.546875,-2.5 2.703125,-2.5 c 0.203125,0 0.328125,-0.140625 0.328125,-0.375 0,-0.21875 -0.140625,-0.375 -0.34375,-0.375 -0.171875,0 -0.359375,0.109375 -0.5625,0.3125 -0.296875,0.296875 -0.59375,0.734375 -0.703125,1.03125 L 1.3125,-1.640625 1.703125,-3.234375 1.6875,-3.25 c -0.546875,0.09375 -0.609375,0.109375 -1.15625,0.203125 v 0.125 c 0.1875,-0.046875 0.203125,-0.046875 0.265625,-0.046875 0.15625,0 0.25,0.078125 0.25,0.203125 0,0.109375 0,0.109375 -0.125,0.609375 L 0.328125,0 Z m 0,0"
           id="path15" />
      </g>
    </g>
    <path
       fill-rule="nonzero"
       fill="#ffffff"
       fill-opacity="1"
       d="m -19.904723,199.79916 c 0,-1.79559 -1.455208,-3.2508 -3.25079,-3.2508 -1.795586,0 -3.250794,1.45521 -3.250794,3.2508 0,1.79558 1.455208,3.25079 3.250794,3.25079 1.795582,0 3.25079,-1.45521 3.25079,-3.25079 z m 0,0"
       id="path2062"
       style="stroke-width:0.352778" />
    <g
       clip-path="url(#clip-3)"
       id="g2063"
       transform="matrix(0.35277777,0,0,0.35277777,-133.41097,121.6451)">
      <path
         fill="none"
         stroke-width="0.3985"
         stroke-linecap="butt"
         stroke-linejoin="miter"
         stroke="#000000"
         stroke-opacity="1"
         stroke-dasharray="0.3985, 1.99255"
         stroke-miterlimit="10"
         d="m -37.759946,-200.85027 c 0,6.87816 -5.574324,12.45249 -12.452491,12.45249 -6.878168,0 -12.452492,-5.57433 -12.452492,-12.45249 0,-6.87817 5.574324,-12.45249 12.452492,-12.45249 6.878167,0 12.452491,5.57432 12.452491,12.45249 z m 0,0"
         transform="matrix(0.74,0,0,-0.74,349.69236,72.90986)"
         id="path2063" />
    </g>
    <g
       fill="#000000"
       fill-opacity="1"
       id="g2064"
       transform="matrix(0.35277777,0,0,0.35277777,-133.41097,121.6451)">
      <g
         id="use2063"
         transform="translate(310.61517,223.1824)">
        <path
           d="M 2.0625,0.046875 C 2.96875,-0.078125 3.609375,-0.90625 3.609375,-1.9375 3.609375,-2.953125 3,-3.6875 2.0625,-3.75 v -0.59375 c 0,-0.265625 0,-0.40625 0.015625,-0.578125 L 1.734375,-5.0625 C 1.75,-4.875 1.75,-4.703125 1.75,-4.40625 V -3.75 c -0.875,0.109375 -1.546875,0.953125 -1.546875,1.96875 0,1.015625 0.625,1.78125 1.546875,1.84375 v 0.75 c 0,0.328125 0,0.53125 -0.015625,0.75 l 0.34375,0.078125 C 2.0625,1.390625 2.0625,1.375 2.0625,1.046875 Z M 1.75,-0.25 C 1.546875,-0.328125 1.40625,-0.4375 1.296875,-0.609375 c -0.25,-0.359375 -0.375,-0.921875 -0.375,-1.5 0,-0.84375 0.3125,-1.359375 0.828125,-1.375 z m 0.3125,-3.1875 c 0.515625,0.1875 0.828125,0.890625 0.828125,1.828125 0,0.875 -0.296875,1.375 -0.828125,1.40625 z m 0,0"
           id="path28" />
      </g>
    </g>
    <path
       fill-rule="nonzero"
       fill="#ffffff"
       fill-opacity="1"
       d="m -19.904723,212.90705 c 0,-1.79558 -1.455208,-3.25079 -3.25079,-3.25079 -1.795586,0 -3.250794,1.45521 -3.250794,3.25079 0,1.79559 1.455208,3.2508 3.250794,3.2508 1.795582,0 3.25079,-1.45521 3.25079,-3.2508 z m 0,0"
       id="path2064"
       style="stroke-width:0.352778" />
    <g
       clip-path="url(#clip-4)"
       id="g2065"
       transform="matrix(0.35277777,0,0,0.35277777,-133.41097,121.6451)">
      <path
         fill="none"
         stroke-width="0.3985"
         stroke-linecap="butt"
         stroke-linejoin="miter"
         stroke="#000000"
         stroke-opacity="1"
         stroke-miterlimit="10"
         d="m -37.759946,-251.06142 c 0,6.87817 -5.574324,12.45249 -12.452491,12.45249 -6.878168,0 -12.452492,-5.57432 -12.452492,-12.45249 0,-6.87817 5.574324,-12.45249 12.452492,-12.45249 6.878167,0 12.452491,5.57432 12.452491,12.45249 z m 0,0"
         transform="matrix(0.74,0,0,-0.74,349.69236,72.90986)"
         id="path2065" />
    </g>
    <g
       fill="#000000"
       fill-opacity="1"
       id="g2066"
       transform="matrix(0.35277777,0,0,0.35277777,-133.41097,121.6451)">
      <g
         id="use2065"
         transform="translate(311.02069,259.68069)">
        <path
           d="m 2.78125,-3.6875 -0.8125,2.53125 -0.234375,-1.125 c -0.21875,-1.140625 -0.453125,-1.5 -0.9375,-1.5 C 0.5625,-3.78125 0.375,-3.6875 0.25,-3.515625 0.09375,-3.28125 0.046875,-3.09375 0.03125,-2.484375 V -2.375 h 0.171875 c 0.015625,-0.203125 0.03125,-0.3125 0.0625,-0.421875 0.078125,-0.234375 0.25,-0.375 0.46875,-0.375 0.1875,0 0.328125,0.125 0.46875,0.421875 0.1875,0.375 0.375,1.046875 0.453125,1.59375 l 0.078125,0.625 C 1.71875,-0.46875 1.640625,-0.234375 1.5,0.171875 c -0.15625,0.40625 -0.1875,0.625 -0.1875,0.875 0,0.34375 0.140625,0.5625 0.390625,0.5625 0.296875,0 0.5,-0.375 0.5,-0.953125 0,-0.234375 -0.046875,-0.59375 -0.125,-1.140625 L 3.5625,-3.6875 Z m 0,0"
           id="path26" />
      </g>
    </g>
    <path
       fill-rule="nonzero"
       fill="#ffffff"
       fill-opacity="1"
       d="m -19.904723,173.58198 c 0,-1.79558 -1.455208,-3.25079 -3.25079,-3.25079 -1.795586,0 -3.250794,1.45521 -3.250794,3.25079 0,1.79558 1.455208,3.25217 3.250794,3.25217 1.795582,0 3.25079,-1.45659 3.25079,-3.25217 z m 0,0"
       id="path2066"
       style="stroke-width:0.352778" />
    <g
       clip-path="url(#clip-5)"
       id="g2067"
       transform="matrix(0.35277777,0,0,0.35277777,-133.41097,121.6451)">
      <path
         fill="none"
         stroke-width="0.3985"
         stroke-linecap="butt"
         stroke-linejoin="miter"
         stroke="#000000"
         stroke-opacity="1"
         stroke-miterlimit="10"
         d="m -37.759946,-100.4227 c 0,6.87817 -5.574324,12.452494 -12.452491,12.452494 -6.878168,0 -12.452492,-5.574324 -12.452492,-12.452494 0,-6.87817 5.574324,-12.45777 12.452492,-12.45777 6.878167,0 12.452491,5.5796 12.452491,12.45777 z m 0,0"
         transform="matrix(0.74,0,0,-0.74,349.69236,72.90986)"
         id="path2067" />
    </g>
    <g
       fill="#000000"
       fill-opacity="1"
       id="g2068"
       transform="matrix(0.35277777,0,0,0.35277777,-133.41097,121.6451)">
      <g
         id="use2067"
         transform="translate(310.61517,149.03143)">
        <path
           d="m -0.0625,-3.390625 c 0.421875,0.015625 0.4375,0.03125 0.609375,0.46875 l 1.1875,3.015625 h 0.21875 C 2.109375,-0.3125 2.109375,-0.328125 2.3125,-0.703125 2.359375,-0.796875 2.40625,-0.90625 2.453125,-1 l 0.4375,-0.8125 C 3.328125,-2.640625 3.5,-3.078125 3.5,-3.34375 c 0,-0.234375 -0.1875,-0.4375 -0.421875,-0.4375 -0.203125,0 -0.390625,0.1875 -0.390625,0.40625 0,0.046875 0,0.078125 0.078125,0.421875 0.03125,0.1875 0.046875,0.296875 0.046875,0.375 0,0.1875 -0.0625,0.375 -0.234375,0.703125 L 2.0625,-0.890625 0.921875,-3.78125 c -0.328125,0.109375 -0.625,0.171875 -0.984375,0.1875 z m 0,0"
           id="path24" />
      </g>
    </g>
    <path
       fill="none"
       stroke-width="0.104031"
       stroke-linecap="butt"
       stroke-linejoin="miter"
       stroke="#000000"
       stroke-opacity="1"
       stroke-miterlimit="10"
       d="m -19.852357,186.69126 h 6.290744"
       id="path2068" />
    <path
       fill-rule="nonzero"
       fill="#000000"
       fill-opacity="1"
       stroke-width="0.104031"
       stroke-linecap="butt"
       stroke-linejoin="miter"
       stroke="#000000"
       stroke-opacity="1"
       stroke-miterlimit="10"
       d="m -14.920358,186.08078 1.437294,0.61047 -1.437294,0.6091 z m 0,0"
       id="path2069" />
    <path
       fill="none"
       stroke-width="0.104031"
       stroke-linecap="butt"
       stroke-linejoin="miter"
       stroke="#000000"
       stroke-opacity="1"
       stroke-miterlimit="10"
       d="m -23.155514,176.88514 v 6.29074"
       id="path2070" />
    <path
       fill-rule="nonzero"
       fill="#000000"
       fill-opacity="1"
       stroke-width="0.104031"
       stroke-linecap="butt"
       stroke-linejoin="miter"
       stroke="#000000"
       stroke-opacity="1"
       stroke-miterlimit="10"
       d="m -22.546422,181.81851 -0.609092,1.43592 -0.609093,-1.43592 z m 0,0"
       id="path2071" />
    <path
       fill="none"
       stroke-width="0.104031"
       stroke-linecap="butt"
       stroke-linejoin="miter"
       stroke="#000000"
       stroke-opacity="1"
       stroke-miterlimit="10"
       d="m -10.047615,150.66934 v 6.29075"
       id="path2072" />
    <path
       fill-rule="nonzero"
       fill="#000000"
       fill-opacity="1"
       stroke-width="0.104031"
       stroke-linecap="butt"
       stroke-linejoin="miter"
       stroke="#000000"
       stroke-opacity="1"
       stroke-miterlimit="10"
       d="m -9.4371447,155.60134 -0.6104703,1.43729 -0.609093,-1.43729 z m 0,0"
       id="path2073" />
    <path
       fill="none"
       stroke-width="0.104031"
       stroke-linecap="butt"
       stroke-linejoin="miter"
       stroke="#000000"
       stroke-opacity="1"
       stroke-miterlimit="10"
       d="m -10.047615,163.77724 v 6.29075"
       id="path2074" />
    <path
       fill-rule="nonzero"
       fill="#000000"
       fill-opacity="1"
       stroke-width="0.104031"
       stroke-linecap="butt"
       stroke-linejoin="miter"
       stroke="#000000"
       stroke-opacity="1"
       stroke-miterlimit="10"
       d="m -9.4371447,168.70924 -0.6104703,1.43729 -0.609093,-1.43729 z m 0,0"
       id="path2075" />
    <path
       fill="none"
       stroke-width="0.104031"
       stroke-linecap="butt"
       stroke-linejoin="miter"
       stroke="#000000"
       stroke-opacity="1"
       stroke-miterlimit="10"
       d="m -10.047615,176.88514 v 6.29074"
       id="path2076" />
    <path
       fill-rule="nonzero"
       fill="#000000"
       fill-opacity="1"
       stroke-width="0.104031"
       stroke-linecap="butt"
       stroke-linejoin="miter"
       stroke="#000000"
       stroke-opacity="1"
       stroke-miterlimit="10"
       d="m -9.4371447,181.81851 -0.6104703,1.43592 -0.609093,-1.43592 z m 0,0"
       id="path2077" />
    <path
       fill="none"
       stroke-width="0.104031"
       stroke-linecap="butt"
       stroke-linejoin="miter"
       stroke="#000000"
       stroke-opacity="1"
       stroke-miterlimit="10"
       d="M -0.24149581,186.69126 H -6.533618"
       id="path2078" />
    <path
       fill-rule="nonzero"
       fill="#000000"
       fill-opacity="1"
       stroke-width="0.104031"
       stroke-linecap="butt"
       stroke-linejoin="miter"
       stroke="#000000"
       stroke-opacity="1"
       stroke-miterlimit="10"
       d="m -5.1748729,187.30035 -1.4359159,-0.6091 1.4359159,-0.61047 z m 0,0"
       id="path2079" />
    <path
       fill="none"
       stroke-width="0.104031"
       stroke-linecap="butt"
       stroke-linejoin="miter"
       stroke="#000000"
       stroke-opacity="1"
       stroke-miterlimit="10"
       d="m -10.047615,189.99442 v 6.29074"
       id="path2080" />
    <path
       fill-rule="nonzero"
       fill="#000000"
       fill-opacity="1"
       stroke-width="0.104031"
       stroke-linecap="butt"
       stroke-linejoin="miter"
       stroke="#000000"
       stroke-opacity="1"
       stroke-miterlimit="10"
       d="m -9.4371447,194.92641 -0.6104703,1.43591 -0.609093,-1.43591 z m 0,0"
       id="path2081" />
    <path
       fill="none"
       stroke-width="0.104031"
       stroke-linecap="butt"
       stroke-linejoin="miter"
       stroke="#000000"
       stroke-opacity="1"
       stroke-miterlimit="10"
       d="m -19.852357,199.79916 h 6.290744"
       id="path2082" />
    <path
       fill-rule="nonzero"
       fill="#000000"
       fill-opacity="1"
       stroke-width="0.104031"
       stroke-linecap="butt"
       stroke-linejoin="miter"
       stroke="#000000"
       stroke-opacity="1"
       stroke-miterlimit="10"
       d="m -14.920358,199.18868 1.437294,0.61047 -1.437294,0.6091 z m 0,0"
       id="path2083" />
    <path
       fill="none"
       stroke-width="0.104031"
       stroke-linecap="butt"
       stroke-linejoin="miter"
       stroke="#000000"
       stroke-opacity="1"
       stroke-miterlimit="10"
       d="m -23.155514,209.6039 v -6.29074"
       id="path2084" />
    <path
       fill-rule="nonzero"
       fill="#000000"
       fill-opacity="1"
       stroke-width="0.104031"
       stroke-linecap="butt"
       stroke-linejoin="miter"
       stroke="#000000"
       stroke-opacity="1"
       stroke-miterlimit="10"
       d="m -23.764607,204.6719 0.609093,-1.4373 0.609092,1.4373 z m 0,0"
       id="path2085" />
    <g
       fill="#000000"
       fill-opacity="1"
       id="g2085"
       transform="matrix(0.35277777,0,0,0.35277777,-133.41097,121.6451)">
      <g
         id="use2085"
         transform="translate(390.86447,239.66516)">
        <path
           d="M 6.015625,-4.34375 H 4.78125 v 0.109375 c 0.359375,0.03125 0.4375,0.078125 0.4375,0.265625 0,0.109375 -0.046875,0.28125 -0.140625,0.453125 L 3.84375,-1.078125 3.578125,-3.75 3.5625,-3.84375 c 0,-0.265625 0.09375,-0.359375 0.453125,-0.390625 V -4.34375 H 2.4375 v 0.109375 c 0.390625,0.015625 0.453125,0.0625 0.5,0.390625 L 3,-3.390625 1.859375,-1.078125 1.5625,-3.765625 C 1.546875,-3.8125 1.546875,-3.859375 1.546875,-3.859375 c 0,-0.265625 0.09375,-0.328125 0.484375,-0.375 V -4.34375 h -1.5625 v 0.109375 C 0.6875,-4.203125 0.75,-4.1875 0.8125,-4.125 0.890625,-4.046875 0.921875,-3.921875 1,-3.3125 L 1.40625,0.125 h 0.125 l 1.484375,-3.015625 h 0.03125 L 3.375,0.125 H 3.5 L 5.515625,-3.75 c 0.1875,-0.34375 0.25,-0.40625 0.5,-0.484375 z m 0,0"
           id="path10" />
      </g>
    </g>
    <path
       fill="none"
       stroke-width="0.104031"
       stroke-linecap="butt"
       stroke-linejoin="miter"
       stroke="#000000"
       stroke-opacity="1"
       stroke-miterlimit="10"
       d="M -14.183108,207.23505 H 7.7166746 V 182.55577 H -14.183108 Z m 0,0"
       id="path2086" />
    <g
       fill="#000000"
       fill-opacity="1"
       id="g2086"
       transform="matrix(0.35277777,0,0,0.35277777,-133.41097,121.6451)">
      <g
         id="use2086"
         transform="translate(396.65054,251.52959)">
        <path
           d="M 4.203125,-4.34375 H 0.90625 v 0.109375 c 0.421875,0.046875 0.515625,0.09375 0.515625,0.28125 0,0.0625 -0.046875,0.296875 -0.078125,0.421875 l -0.8125,2.9375 C 0.421875,-0.21875 0.359375,-0.171875 0,-0.109375 V 0 H 3.359375 L 3.765625,-1.078125 3.671875,-1.125 c -0.3125,0.421875 -0.484375,0.59375 -0.78125,0.71875 -0.234375,0.125 -0.6875,0.1875 -1.1875,0.1875 -0.375,0 -0.53125,-0.0625 -0.53125,-0.21875 0,-0.078125 0.0625,-0.390625 0.234375,-0.984375 0.09375,-0.28125 0.140625,-0.5 0.21875,-0.75 0.234375,0 0.4375,0.015625 0.515625,0.015625 0.25,-0.015625 0.4375,0.03125 0.515625,0.09375 0.03125,0.03125 0.046875,0.09375 0.046875,0.203125 0,0.125 -0.015625,0.203125 -0.046875,0.359375 l 0.140625,0.03125 0.4375,-1.546875 L 3.125,-3.046875 c -0.25,0.5625 -0.3125,0.609375 -0.921875,0.640625 -0.078125,0 -0.296875,0 -0.515625,0.015625 L 2.125,-3.9375 c 0.03125,-0.15625 0.109375,-0.1875 0.484375,-0.1875 1.03125,0 1.265625,0.09375 1.265625,0.5 0,0.078125 0,0.171875 -0.015625,0.296875 H 4 Z m 0,0"
           id="path8" />
      </g>
    </g>
    <path
       fill="none"
       stroke-width="0.104031"
       stroke-linecap="butt"
       stroke-linejoin="miter"
       stroke="#000000"
       stroke-opacity="1"
       stroke-miterlimit="10"
       d="M -15.06643,211.38157 H 9.1208955 V 169.44649 H -15.06643 Z m 0,0"
       id="path2087" />
    <g
       fill="#000000"
       fill-opacity="1"
       id="g2087"
       transform="matrix(0.35277777,0,0,0.35277777,-133.41097,121.6451)">
      <g
         id="use2087"
         transform="translate(400.37939,263.28152)">
        <path
           d="M 0.859375,-4.234375 C 1.28125,-4.1875 1.375,-4.140625 1.375,-3.953125 c 0,0.09375 -0.03125,0.25 -0.078125,0.421875 l -0.8125,2.9375 c -0.125,0.375 -0.171875,0.421875 -0.53125,0.484375 V 0 H 1.625 c 0.78125,0 1.484375,-0.203125 2,-0.578125 0.640625,-0.46875 1.03125,-1.203125 1.03125,-1.96875 0,-1.09375 -0.765625,-1.796875 -1.953125,-1.796875 H 0.859375 Z M 2.078125,-3.9375 C 2.125,-4.09375 2.21875,-4.140625 2.484375,-4.140625 c 0.375,0 0.703125,0.09375 0.921875,0.25 0.328125,0.234375 0.5,0.65625 0.5,1.1875 C 3.90625,-2 3.625,-1.25 3.1875,-0.796875 c -0.390625,0.390625 -0.9375,0.59375 -1.625,0.59375 -0.3125,0 -0.4375,-0.0625 -0.4375,-0.234375 0,-0.09375 0.03125,-0.234375 0.15625,-0.640625 z m 0,0"
           id="path6" />
      </g>
    </g>
    <g
       clip-path="url(#clip-6)"
       id="g2088"
       transform="matrix(0.35277777,0,0,0.35277777,-133.41097,121.6451)">
      <path
         fill="none"
         stroke-width="0.3985"
         stroke-linecap="butt"
         stroke-linejoin="miter"
         stroke="#000000"
         stroke-opacity="1"
         stroke-miterlimit="10"
         d="M -22.615309,-261.09626 H 78.804666 V -34.370122 H -22.615309 Z m 0,0"
         transform="matrix(0.74,0,0,-0.74,349.69236,72.90986)"
         id="path2088" />
    </g>
    <path
       fill="none"
       stroke-width="0.104031"
       stroke-linecap="butt"
       stroke-linejoin="miter"
       stroke="#ffffff"
       stroke-opacity="1"
       stroke-miterlimit="10"
       d="M 26.943062,203.88228 H 48.218594 V 182.60675 H 26.943062 Z m 0,0"
       id="path2089" />
    <path
       fill="none"
       stroke-width="0.104031"
       stroke-linecap="butt"
       stroke-linejoin="miter"
       stroke="#ffffff"
       stroke-opacity="1"
       stroke-miterlimit="10"
       d="M 26.05974,208.06739 H 49.622815 V 169.49885 H 26.05974 Z m 0,0"
       id="path2090" />
    <path
       fill="none"
       stroke-width="0.104031"
       stroke-linecap="butt"
       stroke-linejoin="miter"
       stroke="#ffffff"
       stroke-opacity="1"
       stroke-miterlimit="10"
       d="M 25.175039,212.2139 H 51.027036 V 156.39096 H 25.175039 Z m 0,0"
       id="path2091" />
    <path
       fill-rule="nonzero"
       fill="#ffffff"
       fill-opacity="1"
       stroke-width="0.104031"
       stroke-linecap="butt"
       stroke-linejoin="miter"
       stroke="#000000"
       stroke-opacity="1"
       stroke-miterlimit="10"
       d="m 34.27836,173.58198 c 0,-1.79558 -1.455209,-3.25079 -3.250792,-3.25079 -1.795584,0 -3.252171,1.45521 -3.252171,3.25079 0,1.79559 1.456587,3.25079 3.252171,3.25079 1.795583,0 3.250792,-1.4552 3.250792,-3.25079 z m 0,0"
       id="path2092" />
    <g
       fill="#000000"
       fill-opacity="1"
       id="g2092"
       transform="matrix(0.35277777,0,0,0.35277777,-133.41097,121.6451)">
      <g
         id="use2092"
         transform="translate(464.55679,148.07314)">
        <path
           d="m 0.40625,-2.984375 h 0.171875 c 0,0 0.015625,0 0.03125,0 0.09375,-0.046875 0.28125,0.09375 0.28125,0.203125 0,0.0625 -0.265625,1.109375 -0.515625,2.09375 C 0.171875,0.046875 0,0.75 -0.0625,0.953125 c -0.078125,0.34375 -0.171875,0.4375 -0.484375,0.4375 v 0.125 h 1.5 V 1.40625 c -0.34375,0 -0.46875,-0.078125 -0.46875,-0.21875 0,-0.109375 0.125,-0.6875 0.28125,-1.234375 0.171875,0.09375 0.3125,0.125 0.484375,0.125 1.078125,0 2.203125,-1.234375 2.203125,-2.40625 C 3.453125,-2.90625 3.140625,-3.25 2.609375,-3.25 2.125,-3.25 1.78125,-3.015625 1.34375,-2.421875 L 1.5625,-3.15625 1.578125,-3.21875 c 0,0 0,-0.015625 0,-0.03125 H 1.5625 c 0,-0.015625 -0.015625,-0.015625 -0.015625,-0.015625 L 1.53125,-3.25 0.390625,-3.09375 Z m 1.9375,0.046875 c 0.3125,0.015625 0.453125,0.203125 0.453125,0.640625 0,0.484375 -0.21875,1.109375 -0.53125,1.578125 -0.3125,0.4375 -0.671875,0.65625 -1.046875,0.65625 -0.203125,0 -0.359375,-0.109375 -0.359375,-0.265625 0,-0.25 0.265625,-1.21875 0.484375,-1.765625 0.203125,-0.5 0.625,-0.859375 1,-0.84375 z m 0,0"
           id="path22" />
      </g>
    </g>
    <path
       fill-rule="nonzero"
       fill="#c6c6c6"
       fill-opacity="1"
       stroke-width="0.104031"
       stroke-linecap="butt"
       stroke-linejoin="miter"
       stroke="#000000"
       stroke-opacity="1"
       stroke-miterlimit="10"
       d="m 47.386259,173.58198 c 0,-1.79558 -1.455209,-3.25079 -3.250792,-3.25079 -1.795584,0 -3.250793,1.45521 -3.250793,3.25079 0,1.79559 1.455209,3.25079 3.250793,3.25079 1.795583,0 3.250792,-1.4552 3.250792,-3.25079 z m 0,0"
       id="path2093" />
    <g
       fill="#000000"
       fill-opacity="1"
       id="g2093"
       transform="matrix(0.35277777,0,0,0.35277777,-133.41097,121.6451)">
      <g
         id="use2093"
         transform="translate(499.22357,148.24187)">
        <path
           d="M 5.078125,-0.859375 C 5,-0.78125 4.953125,-0.703125 4.921875,-0.671875 4.71875,-0.40625 4.5625,-0.28125 4.453125,-0.28125 c -0.0625,0 -0.09375,-0.046875 -0.09375,-0.109375 0,-0.046875 0.03125,-0.15625 0.078125,-0.34375 l 0.5,-1.84375 c 0,-0.03125 0.015625,-0.171875 0.015625,-0.203125 0,-0.265625 -0.1875,-0.46875 -0.4375,-0.46875 C 4.375,-3.25 4.234375,-3.203125 4.0625,-3.09375 3.6875,-2.859375 3.390625,-2.5 2.890625,-1.6875 3.0625,-2.25 3.171875,-2.671875 3.171875,-2.8125 c 0,-0.25 -0.15625,-0.4375 -0.40625,-0.4375 -0.453125,0 -0.96875,0.484375 -1.65625,1.546875 l 0.4375,-1.53125 L 1.515625,-3.25 c -0.40625,0.09375 -0.5625,0.109375 -1.171875,0.21875 v 0.125 h 0.1875 c 0.1875,0 0.28125,0.046875 0.28125,0.15625 0,0.09375 -0.171875,0.765625 -0.4375,1.703125 C 0.203125,-0.453125 0.1875,-0.375 0.09375,0 H 0.640625 C 1,-1.171875 1.109375,-1.453125 1.359375,-1.828125 1.765625,-2.453125 2.21875,-2.875 2.46875,-2.875 c 0.09375,0 0.140625,0.078125 0.140625,0.1875 C 2.609375,-2.625 2.375,-1.71875 1.90625,0 h 0.5625 c 0.296875,-1.15625 0.4375,-1.515625 0.8125,-2.046875 0.359375,-0.5 0.734375,-0.828125 0.9375,-0.828125 0.09375,0 0.15625,0.078125 0.15625,0.15625 0,0.046875 -0.015625,0.125 -0.046875,0.265625 l -0.4375,1.6875 c -0.0625,0.28125 -0.09375,0.421875 -0.09375,0.5 0,0.21875 0.109375,0.328125 0.296875,0.328125 0.34375,0 0.671875,-0.234375 1.0625,-0.78125 l 0.03125,-0.0625 z m 0,0"
           id="path13" />
      </g>
    </g>
    <g
       fill="#000000"
       fill-opacity="1"
       id="g2094"
       transform="matrix(0.35277777,0,0,0.35277777,-133.41097,121.6451)">
      <g
         id="use2094"
         transform="translate(504.54639,149.34743)">
        <path
           d="M 1.953125,-0.59375 C 1.5625,-0.265625 1.390625,-0.1875 1.15625,-0.1875 c -0.3125,0 -0.515625,-0.1875 -0.515625,-0.484375 0,-0.09375 0.015625,-0.171875 0.0625,-0.34375 L 0.84375,-1.03125 c 0.828125,-0.125 1.40625,-0.53125 1.40625,-1 0,-0.234375 -0.171875,-0.375 -0.4375,-0.375 -0.78125,0 -1.640625,0.90625 -1.640625,1.71875 0,0.4375 0.296875,0.75 0.71875,0.75 0.390625,0 0.8125,-0.21875 1.125,-0.59375 z m -1.125,-0.78125 c 0.1875,-0.484375 0.59375,-0.90625 0.875,-0.90625 0.109375,0 0.1875,0.09375 0.1875,0.21875 0,0.171875 -0.109375,0.359375 -0.28125,0.53125 -0.203125,0.1875 -0.40625,0.28125 -0.875,0.390625 z m 0,0"
           id="path5" />
      </g>
    </g>
    <path
       fill-rule="nonzero"
       fill="#c6c6c6"
       fill-opacity="1"
       stroke-width="0.104031"
       stroke-linecap="butt"
       stroke-linejoin="miter"
       stroke="#000000"
       stroke-opacity="1"
       stroke-miterlimit="10"
       d="m 47.386259,160.47408 c 0,-1.79558 -1.455209,-3.25079 -3.250792,-3.25079 -1.795584,0 -3.250793,1.45521 -3.250793,3.25079 0,1.79559 1.455209,3.25079 3.250793,3.25079 1.795583,0 3.250792,-1.4552 3.250792,-3.25079 z m 0,0"
       id="path2094" />
    <g
       fill="#000000"
       fill-opacity="1"
       id="g2095"
       transform="matrix(0.35277777,0,0,0.35277777,-133.41097,121.6451)">
      <g
         id="use2095"
         transform="translate(498.92905,111.05168)">
        <path
           d="M 5.078125,-0.859375 C 5,-0.78125 4.953125,-0.703125 4.921875,-0.671875 4.71875,-0.40625 4.5625,-0.28125 4.453125,-0.28125 c -0.0625,0 -0.09375,-0.046875 -0.09375,-0.109375 0,-0.046875 0.03125,-0.15625 0.078125,-0.34375 l 0.5,-1.84375 c 0,-0.03125 0.015625,-0.171875 0.015625,-0.203125 0,-0.265625 -0.1875,-0.46875 -0.4375,-0.46875 C 4.375,-3.25 4.234375,-3.203125 4.0625,-3.09375 3.6875,-2.859375 3.390625,-2.5 2.890625,-1.6875 3.0625,-2.25 3.171875,-2.671875 3.171875,-2.8125 c 0,-0.25 -0.15625,-0.4375 -0.40625,-0.4375 -0.453125,0 -0.96875,0.484375 -1.65625,1.546875 l 0.4375,-1.53125 L 1.515625,-3.25 c -0.40625,0.09375 -0.5625,0.109375 -1.171875,0.21875 v 0.125 h 0.1875 c 0.1875,0 0.28125,0.046875 0.28125,0.15625 0,0.09375 -0.171875,0.765625 -0.4375,1.703125 C 0.203125,-0.453125 0.1875,-0.375 0.09375,0 H 0.640625 C 1,-1.171875 1.109375,-1.453125 1.359375,-1.828125 1.765625,-2.453125 2.21875,-2.875 2.46875,-2.875 c 0.09375,0 0.140625,0.078125 0.140625,0.1875 C 2.609375,-2.625 2.375,-1.71875 1.90625,0 h 0.5625 c 0.296875,-1.15625 0.4375,-1.515625 0.8125,-2.046875 0.359375,-0.5 0.734375,-0.828125 0.9375,-0.828125 0.09375,0 0.15625,0.078125 0.15625,0.15625 0,0.046875 -0.015625,0.125 -0.046875,0.265625 l -0.4375,1.6875 c -0.0625,0.28125 -0.09375,0.421875 -0.09375,0.5 0,0.21875 0.109375,0.328125 0.296875,0.328125 0.34375,0 0.671875,-0.234375 1.0625,-0.78125 l 0.03125,-0.0625 z m 0,0"
           id="path14" />
      </g>
    </g>
    <g
       fill="#000000"
       fill-opacity="1"
       id="g2096"
       transform="matrix(0.35277777,0,0,0.35277777,-133.41097,121.6451)">
      <g
         id="use2096"
         transform="translate(504.25186,112.22458)">
        <path
           d="m 2.53125,-0.609375 c -0.296875,0.34375 -0.359375,0.390625 -0.453125,0.390625 -0.0625,0 -0.09375,-0.046875 -0.09375,-0.109375 0,-0.078125 0.171875,-0.734375 0.34375,-1.34375 0.15625,-0.5 0.265625,-0.9375 0.546875,-2.03125 L 2.84375,-3.71875 C 2.5625,-3.671875 2.359375,-3.625 2.015625,-3.59375 V -3.5 c 0.296875,0 0.328125,0.015625 0.328125,0.140625 0,0.0625 0,0.09375 -0.078125,0.375 L 2.03125,-2.09375 c -0.046875,-0.21875 -0.140625,-0.3125 -0.359375,-0.3125 -0.703125,0 -1.59375,1.03125 -1.59375,1.84375 0,0.390625 0.21875,0.625 0.578125,0.625 0.375,0 0.609375,-0.171875 0.984375,-0.71875 -0.0625,0.28125 -0.078125,0.359375 -0.078125,0.484375 0,0.140625 0.09375,0.25 0.234375,0.25 0.21875,0 0.515625,-0.234375 0.796875,-0.625 z M 1.703125,-2.28125 c 0.15625,0.015625 0.234375,0.109375 0.234375,0.3125 0,0.828125 -0.5625,1.765625 -1.0625,1.765625 -0.1875,0 -0.3125,-0.140625 -0.3125,-0.359375 0,-0.453125 0.265625,-1.078125 0.625,-1.46875 0.15625,-0.15625 0.359375,-0.265625 0.515625,-0.25 z m 0,0"
           id="path4" />
      </g>
    </g>
    <path
       fill-rule="nonzero"
       fill="#ffffff"
       fill-opacity="1"
       d="m 34.278359,147.36618 c 0,-1.79558 -1.455209,-3.25079 -3.250791,-3.25079 -1.795582,0 -3.25217,1.45521 -3.25217,3.25079 0,1.79559 1.456588,3.25079 3.25217,3.25079 1.795582,0 3.250791,-1.4552 3.250791,-3.25079 z m 0,0"
       id="path2096"
       style="stroke-width:0.352778" />
    <g
       clip-path="url(#clip-7)"
       id="g2097"
       transform="matrix(0.35277777,0,0,0.35277777,-133.41097,121.6451)">
      <path
         fill="none"
         stroke-width="1.39478"
         stroke-linecap="butt"
         stroke-linejoin="miter"
         stroke="#000000"
         stroke-opacity="1"
         stroke-miterlimit="10"
         d="m 12.454708,50.2116 c 0,6.878167 -5.574325,12.452491 -12.45249178,12.452491 -6.87816722,0 -12.45777022,-5.574324 -12.45777022,-12.452491 0,-6.878168 5.579603,-12.452492 12.45777022,-12.452492 6.87816678,0 12.45249178,5.574324 12.45249178,12.452492 z m 0,0"
         transform="matrix(0.74,0,0,-0.74,466.12336,110.06674)"
         id="path2097" />
    </g>
    <g
       clip-path="url(#clip-8)"
       id="g2098"
       transform="matrix(0.35277777,0,0,0.35277777,-133.41097,121.6451)">
      <path
         fill="none"
         stroke-width="0.59776"
         stroke-linecap="butt"
         stroke-linejoin="miter"
         stroke="#ffffff"
         stroke-opacity="1"
         stroke-miterlimit="10"
         d="m 12.454708,50.2116 c 0,6.878167 -5.574325,12.452491 -12.45249178,12.452491 -6.87816722,0 -12.45777022,-5.574324 -12.45777022,-12.452491 0,-6.878168 5.579603,-12.452492 12.45777022,-12.452492 6.87816678,0 12.45249178,5.574324 12.45249178,12.452492 z m 0,0"
         transform="matrix(0.74,0,0,-0.74,466.12336,110.06674)"
         id="path2098" />
    </g>
    <g
       fill="#000000"
       fill-opacity="1"
       id="g2099"
       transform="matrix(0.35277777,0,0,0.35277777,-133.41097,121.6451)">
      <g
         id="use2098"
         transform="translate(463.56592,74.753197)">
        <path
           d="M 0.140625,1.203125 C 0.140625,1.21875 0.125,1.3125 0.125,1.328125 0.125,1.4375 0.234375,1.4375 0.296875,1.4375 c 0.140625,0 0.140625,-0.015625 0.1875,-0.171875 0.03125,-0.125 0.46875,-1.890625 0.46875,-1.90625 0.3125,0.515625 0.890625,0.734375 1.46875,0.734375 1.484375,0 2.3125,-1.140625 2.3125,-2.09375 0,-0.515625 -0.234375,-0.796875 -0.46875,-0.984375 0.265625,-0.21875 0.5625,-0.703125 0.5625,-1.21875 0,-0.625 -0.453125,-0.96875 -1.140625,-0.96875 -1.0625,0 -2.15625,0.8125 -2.421875,1.875 z m 3.34375,-4.15625 c -0.171875,0.125 -0.359375,0.125 -0.453125,0.125 -0.03125,0 -0.359375,0 -0.359375,-0.0625 0,-0.125 0.359375,-0.125 0.453125,-0.125 0.140625,0 0.21875,0 0.359375,0.0625 z m 0.25,-0.265625 C 3.5,-3.28125 3.296875,-3.28125 3.15625,-3.28125 c -0.25,0 -0.84375,0 -0.84375,0.40625 0,0.3125 0.453125,0.3125 0.703125,0.3125 0.125,0 0.453125,0 0.796875,-0.140625 0.046875,0.109375 0.078125,0.25 0.078125,0.375 0,0.265625 -0.203125,1.15625 -0.421875,1.546875 -0.234375,0.359375 -0.59375,0.609375 -1.0625,0.609375 -0.6875,0 -1.25,-0.421875 -1.25,-1.078125 0,-0.15625 0.03125,-0.3125 0.046875,-0.375 0.109375,-0.4375 0.34375,-1.40625 0.4375,-1.734375 0.234375,-0.796875 1.125,-1.546875 2,-1.546875 0.28125,0 0.4375,0.125 0.4375,0.421875 0,0.21875 -0.171875,0.984375 -0.34375,1.265625 z m 0,0"
           id="path3" />
      </g>
    </g>
    <g
       clip-path="url(#clip-9)"
       id="g2100"
       transform="matrix(0.35277777,0,0,0.35277777,-133.41097,121.6451)">
      <path
         fill-rule="nonzero"
         fill="#c6c6c6"
         fill-opacity="1"
         d="m 438.18359,72.910156 c 0,-5.089844 -4.1289,-9.214844 -9.21875,-9.214844 -5.08984,0 -9.21484,4.125 -9.21484,9.214844 0,5.089844 4.125,9.214844 9.21484,9.214844 5.08985,0 9.21875,-4.125 9.21875,-9.214844 z m 0,0"
         id="path2099" />
    </g>
    <g
       clip-path="url(#clip-10)"
       id="g2101"
       transform="matrix(0.35277777,0,0,0.35277777,-133.41097,121.6451)">
      <path
         fill="none"
         stroke-width="0.3985"
         stroke-linecap="butt"
         stroke-linejoin="miter"
         stroke="#000000"
         stroke-opacity="1"
         stroke-miterlimit="10"
         d="m -37.756441,50.2116 c 0,6.878167 -5.579603,12.452491 -12.45777,12.452491 -6.878167,0 -12.452492,-5.574324 -12.452492,-12.452491 0,-6.878168 5.574325,-12.452492 12.452492,-12.452492 6.878167,0 12.45777,5.574324 12.45777,12.452492 z m 0,0"
         transform="matrix(0.74,0,0,-0.74,466.12336,110.06674)"
         id="path2100" />
    </g>
    <g
       fill="#000000"
       fill-opacity="1"
       id="g2102"
       transform="matrix(0.35277777,0,0,0.35277777,-133.41097,121.6451)">
      <g
         id="use2101"
         transform="translate(427.12387,73.740883)">
        <path
           d="m 3.671875,-3.15625 h -0.65625 l -0.53125,2.3125 c -0.265625,0.328125 -0.59375,0.515625 -0.90625,0.515625 -0.3125,0 -0.515625,-0.203125 -0.515625,-0.515625 0,-0.0625 0.015625,-0.171875 0.03125,-0.21875 L 1.578125,-3.15625 H 0.9375 l -0.625,2.765625 C 0.265625,-0.203125 0.1875,0 0.0625,0.34375 c -0.21875,0.421875 -0.28125,0.609375 -0.28125,0.859375 0,0.234375 0.078125,0.34375 0.25,0.34375 0.3125,0 0.515625,-0.421875 0.515625,-1.0625 0,-0.0625 0,-0.1875 0,-0.3125 C 0.53125,0.046875 0.53125,-0.046875 0.53125,-0.125 c 0,-0.125 0.015625,-0.203125 0.015625,-0.359375 0.140625,0.375 0.375,0.5625 0.765625,0.5625 0.390625,0 0.75,-0.203125 1.140625,-0.671875 -0.03125,0.109375 -0.03125,0.15625 -0.03125,0.234375 0,0.28125 0.140625,0.4375 0.421875,0.4375 0.28125,0 0.46875,-0.109375 0.78125,-0.421875 l 0.03125,-0.0625 c -0.1875,0.140625 -0.296875,0.1875 -0.421875,0.1875 -0.125,0 -0.1875,-0.078125 -0.1875,-0.203125 0,-0.078125 0,-0.09375 0.046875,-0.25 z m 0,0"
           id="path12" />
      </g>
    </g>
    <path
       fill-rule="nonzero"
       fill="#c6c6c6"
       fill-opacity="1"
       d="m 47.386258,147.36618 c 0,-1.79558 -1.455209,-3.25079 -3.250791,-3.25079 -1.795582,0 -3.250791,1.45521 -3.250791,3.25079 0,1.79559 1.455209,3.25079 3.250791,3.25079 1.795582,0 3.250791,-1.4552 3.250791,-3.25079 z m 0,0"
       id="path2102"
       style="stroke-width:0.352778" />
    <g
       clip-path="url(#clip-11)"
       id="g2103"
       transform="matrix(0.35277777,0,0,0.35277777,-133.41097,121.6451)">
      <path
         fill="none"
         stroke-width="0.3985"
         stroke-linecap="butt"
         stroke-linejoin="miter"
         stroke="#000000"
         stroke-opacity="1"
         stroke-miterlimit="10"
         d="m 62.665856,50.2116 c 0,6.878167 -5.574324,12.452491 -12.452491,12.452491 -6.878167,0 -12.452492,-5.574324 -12.452492,-12.452491 0,-6.878168 5.574325,-12.452492 12.452492,-12.452492 6.878167,0 12.452491,5.574324 12.452491,12.452492 z m 0,0"
         transform="matrix(0.74,0,0,-0.74,466.12336,110.06674)"
         id="path2103" />
    </g>
    <g
       fill="#000000"
       fill-opacity="1"
       id="g2104"
       transform="matrix(0.35277777,0,0,0.35277777,-133.41097,121.6451)">
      <g
         id="use2103"
         transform="translate(499.50919,75.997139)">
        <path
           d="M 4.34375,-3.046875 V -3.6875 h -1.6875 c -0.578125,0 -0.96875,0.0625 -1.3125,0.21875 -0.71875,0.3125 -1.125,0.890625 -1.125,1.578125 0,0.484375 0.1875,0.96875 0.53125,1.359375 0.375,0.4375 0.796875,0.625 1.375,0.625 0.515625,0 0.9375,-0.15625 1.28125,-0.453125 0.328125,-0.296875 0.53125,-0.71875 0.53125,-1.125 0,-0.5625 -0.4375,-1.109375 -1.21875,-1.5625 z m -1.96875,0 c 0.640625,0.65625 0.78125,0.9375 0.78125,1.546875 0,0.765625 -0.375,1.28125 -0.921875,1.28125 C 1.5625,-0.21875 1,-0.96875 1,-1.875 1,-2.578125 1.453125,-3.046875 2.140625,-3.046875 Z m 0,0"
           id="path23" />
      </g>
    </g>
    <g
       fill="#000000"
       fill-opacity="1"
       id="g2105"
       transform="matrix(0.35277777,0,0,0.35277777,-133.41097,121.6451)">
      <g
         id="use2104"
         transform="translate(503.95438,73.321297)">
        <path
           d="M 2.59375,-0.75 2.515625,-0.78125 C 2.3125,-0.46875 2.25,-0.421875 2,-0.421875 H 0.703125 L 1.609375,-1.375 C 2.09375,-1.875 2.3125,-2.296875 2.3125,-2.71875 2.3125,-3.265625 1.875,-3.6875 1.296875,-3.6875 1,-3.6875 0.71875,-3.5625 0.515625,-3.34375 c -0.171875,0.1875 -0.25,0.359375 -0.34375,0.75 L 0.28125,-2.578125 C 0.5,-3.109375 0.703125,-3.28125 1.078125,-3.28125 c 0.453125,0 0.765625,0.3125 0.765625,0.765625 0,0.421875 -0.25,0.9375 -0.703125,1.421875 L 0.15625,-0.0625 V 0 h 2.140625 z m 0,0"
           id="path1" />
      </g>
    </g>
    <path
       fill-rule="nonzero"
       fill="#ffffff"
       fill-opacity="1"
       stroke-width="0.104031"
       stroke-linecap="butt"
       stroke-linejoin="miter"
       stroke="#000000"
       stroke-opacity="1"
       stroke-miterlimit="10"
       d="m 34.27836,186.69126 c 0,-1.79559 -1.455209,-3.25217 -3.250792,-3.25217 -1.795584,0 -3.252171,1.45658 -3.252171,3.25217 0,1.7942 1.456587,3.25079 3.252171,3.25079 1.795583,0 3.250792,-1.45659 3.250792,-3.25079 z m 0,0"
       id="path2105" />
    <g
       fill="#000000"
       fill-opacity="1"
       id="g2106"
       transform="matrix(0.35277777,0,0,0.35277777,-133.41097,121.6451)">
      <g
         id="use2105"
         transform="translate(464.68997,185.68291)">
        <path
           d="m 0.59375,-2.28125 c 0.15625,-0.359375 0.25,-0.4375 0.59375,-0.4375 h 1.078125 l -2.28125,2.75 0.0625,0.0625 c 0.125,-0.09375 0.21875,-0.125 0.34375,-0.125 0.171875,0 0.421875,0.09375 0.765625,0.296875 0.375,0.234375 0.625,0.328125 0.828125,0.328125 0.375,0 0.6875,-0.265625 0.6875,-0.5625 0,-0.15625 -0.09375,-0.265625 -0.25,-0.265625 -0.15625,0 -0.25,0.109375 -0.25,0.234375 0,0.0625 0.015625,0.140625 0.0625,0.21875 0.015625,0.046875 0.03125,0.09375 0.03125,0.109375 0,0.0625 -0.078125,0.109375 -0.1875,0.109375 -0.1875,0 -0.28125,-0.046875 -0.515625,-0.359375 C 1.234375,-0.34375 1.09375,-0.4375 0.65625,-0.53125 L 2.796875,-3.078125 V -3.15625 h -2.09375 l -0.21875,0.84375 z m 0,0"
           id="path20" />
      </g>
    </g>
    <g
       clip-path="url(#clip-12)"
       id="g2107"
       transform="matrix(0.35277777,0,0,0.35277777,-133.41097,121.6451)">
      <path
         fill-rule="nonzero"
         fill="#ffffff"
         fill-opacity="1"
         d="m 438.18359,184.38281 c 0,-5.08984 -4.1289,-9.21875 -9.21875,-9.21875 -5.08984,0 -9.21484,4.12891 -9.21484,9.21875 0,5.08594 4.125,9.21485 9.21484,9.21485 5.08985,0 9.21875,-4.12891 9.21875,-9.21485 z m 0,0"
         id="path2106" />
    </g>
    <g
       clip-path="url(#clip-13)"
       id="g2108"
       transform="matrix(0.35277777,0,0,0.35277777,-133.41097,121.6451)">
      <path
         fill="none"
         stroke-width="0.3985"
         stroke-linecap="butt"
         stroke-linejoin="miter"
         stroke="#000000"
         stroke-opacity="1"
         stroke-dasharray="0.3985, 1.99255"
         stroke-miterlimit="10"
         d="m -37.756441,-100.42713 c 0,6.878172 -5.579603,12.457775 -12.45777,12.457775 -6.878167,0 -12.452492,-5.579603 -12.452492,-12.457775 0,-6.87288 5.574325,-12.45249 12.452492,-12.45249 6.878167,0 12.45777,5.57961 12.45777,12.45249 z m 0,0"
         transform="matrix(0.74,0,0,-0.74,466.12336,110.06674)"
         id="path2107" />
    </g>
    <g
       fill="#000000"
       fill-opacity="1"
       id="g2109"
       transform="matrix(0.35277777,0,0,0.35277777,-133.41097,121.6451)">
      <g
         id="use2108"
         transform="translate(426.4379,185.36766)">
        <path
           d="M 2.875,-3.6875 H 2.390625 v 3.390625 C 1.90625,-0.40625 1.703125,-0.703125 1.65625,-1.390625 l -0.140625,-1.25 C 1.484375,-3 1.453125,-3.140625 1.328125,-3.328125 1.15625,-3.609375 0.859375,-3.78125 0.5625,-3.78125 c -0.140625,0 -0.25,0.015625 -0.46875,0.09375 v 0.140625 c 0.46875,0.078125 0.546875,0.15625 0.609375,0.6875 L 0.8125,-1.65625 c 0.078125,0.859375 0.71875,1.546875 1.578125,1.671875 v 1.625 H 2.875 v -1.625 c 0.859375,-0.125 1.5,-0.8125 1.578125,-1.671875 l 0.09375,-1.203125 c 0.0625,-0.515625 0.140625,-0.59375 0.625,-0.6875 V -3.6875 C 4.9375,-3.765625 4.828125,-3.78125 4.703125,-3.78125 c -0.265625,0 -0.5625,0.15625 -0.734375,0.375 -0.140625,0.203125 -0.1875,0.375 -0.234375,0.765625 l -0.125,1.25 c -0.046875,0.6875 -0.25,0.984375 -0.734375,1.09375 z m 0,0"
           id="path31" />
      </g>
    </g>
    <path
       fill-rule="nonzero"
       fill="#c6c6c6"
       fill-opacity="1"
       stroke-width="0.104031"
       stroke-linecap="butt"
       stroke-linejoin="miter"
       stroke="#000000"
       stroke-opacity="1"
       stroke-miterlimit="10"
       d="m 34.27836,199.79916 c 0,-1.79559 -1.455209,-3.2508 -3.250792,-3.2508 -1.795584,0 -3.252171,1.45521 -3.252171,3.2508 0,1.79558 1.456587,3.25079 3.252171,3.25079 1.795583,0 3.250792,-1.45521 3.250792,-3.25079 z m 0,0"
       id="path2109" />
    <g
       fill="#000000"
       fill-opacity="1"
       id="g2110"
       transform="matrix(0.35277777,0,0,0.35277777,-133.41097,121.6451)">
      <g
         id="use2109"
         transform="translate(463.66507,223.0751)">
        <path
           d="m 0.125,-2.984375 h 0.140625 c 0,0 0.03125,0 0.0625,0 0.203125,-0.015625 0.28125,0.0625 0.328125,0.34375 0.09375,0.40625 0.1875,1.1875 0.203125,1.78125 l 0.03125,0.640625 C 0.90625,0.078125 0.921875,0.125 0.984375,0.125 1.0625,0.125 1.1875,-0.046875 1.453125,-0.5625 1.5,-0.640625 1.640625,-0.90625 1.859375,-1.296875 l 0.65625,-1.140625 0.21875,2.34375 C 2.75,0.109375 2.765625,0.125 2.8125,0.125 c 0.0625,0 0.140625,-0.0625 0.34375,-0.3125 0,0 0.03125,-0.046875 0.0625,-0.078125 1,-1.203125 1.5625,-2.125 1.5625,-2.609375 0,-0.21875 -0.171875,-0.375 -0.390625,-0.375 -0.171875,0 -0.28125,0.09375 -0.28125,0.25 0,0.09375 0.03125,0.15625 0.15625,0.265625 0.109375,0.109375 0.15625,0.1875 0.15625,0.265625 0,0.328125 -0.25,0.71875 -1.21875,1.921875 L 2.96875,-3.140625 C 2.96875,-3.21875 2.953125,-3.25 2.90625,-3.25 2.875,-3.25 2.859375,-3.234375 2.8125,-3.171875 l -1.40625,2.25 C 1.375,-1.453125 1.296875,-2.21875 1.21875,-2.734375 1.140625,-3.1875 1.125,-3.25 1.03125,-3.25 c -0.046875,0 -0.125,0.015625 -0.21875,0.046875 -0.078125,0.03125 -0.265625,0.0625 -0.5,0.09375 -0.03125,0 -0.109375,0.015625 -0.1875,0.03125 z m 0,0"
           id="path18" />
      </g>
    </g>
    <path
       fill-rule="nonzero"
       fill="#c6c6c6"
       fill-opacity="1"
       stroke-width="0.104031"
       stroke-linecap="butt"
       stroke-linejoin="miter"
       stroke="#000000"
       stroke-opacity="1"
       stroke-miterlimit="10"
       d="m 47.386259,186.69126 c 0,-1.79559 -1.455209,-3.25217 -3.250792,-3.25217 -1.795584,0 -3.250793,1.45658 -3.250793,3.25217 0,1.7942 1.455209,3.25079 3.250793,3.25079 1.795583,0 3.250792,-1.45659 3.250792,-3.25079 z m 0,0"
       id="path2110" />
    <g
       fill="#000000"
       fill-opacity="1"
       id="g2111"
       transform="matrix(0.35277777,0,0,0.35277777,-133.41097,121.6451)">
      <g
         id="use2110"
         transform="translate(501.76175,185.98112)">
        <path
           d="m 0.890625,0 c 0.390625,-1.25 0.515625,-1.578125 0.84375,-2.125 0.25,-0.421875 0.453125,-0.640625 0.578125,-0.640625 0.046875,0 0.078125,0.015625 0.125,0.09375 C 2.5,-2.546875 2.546875,-2.5 2.703125,-2.5 c 0.203125,0 0.328125,-0.140625 0.328125,-0.375 0,-0.21875 -0.140625,-0.375 -0.34375,-0.375 -0.171875,0 -0.359375,0.109375 -0.5625,0.3125 -0.296875,0.296875 -0.59375,0.734375 -0.703125,1.03125 L 1.3125,-1.640625 1.703125,-3.234375 1.6875,-3.25 c -0.546875,0.09375 -0.609375,0.109375 -1.15625,0.203125 v 0.125 c 0.1875,-0.046875 0.203125,-0.046875 0.265625,-0.046875 0.15625,0 0.25,0.078125 0.25,0.203125 0,0.109375 0,0.109375 -0.125,0.609375 L 0.328125,0 Z m 0,0"
           id="path16" />
      </g>
    </g>
    <g
       clip-path="url(#clip-14)"
       id="g2112"
       transform="matrix(0.35277777,0,0,0.35277777,-133.41097,121.6451)">
      <path
         fill-rule="nonzero"
         fill="#ffffff"
         fill-opacity="1"
         d="m 438.18359,221.53906 c 0,-5.08984 -4.1289,-9.21484 -9.21875,-9.21484 -5.08984,0 -9.21484,4.125 -9.21484,9.21484 0,5.08985 4.125,9.21485 9.21484,9.21485 5.08985,0 9.21875,-4.125 9.21875,-9.21485 z m 0,0"
         id="path2111" />
    </g>
    <g
       clip-path="url(#clip-15)"
       id="g2113"
       transform="matrix(0.35277777,0,0,0.35277777,-133.41097,121.6451)">
      <path
         fill="none"
         stroke-width="0.3985"
         stroke-linecap="butt"
         stroke-linejoin="miter"
         stroke="#000000"
         stroke-opacity="1"
         stroke-dasharray="0.3985, 1.99255"
         stroke-miterlimit="10"
         d="m -37.756441,-150.63827 c 0,6.87816 -5.579603,12.45249 -12.45777,12.45249 -6.878167,0 -12.452492,-5.57433 -12.452492,-12.45249 0,-6.87817 5.574325,-12.45249 12.452492,-12.45249 6.878167,0 12.45777,5.57432 12.45777,12.45249 z m 0,0"
         transform="matrix(0.74,0,0,-0.74,466.12336,110.06674)"
         id="path2112" />
    </g>
    <g
       fill="#000000"
       fill-opacity="1"
       id="g2114"
       transform="matrix(0.35277777,0,0,0.35277777,-133.41097,121.6451)">
      <g
         id="use2113"
         transform="translate(427.04617,223.1824)">
        <path
           d="M 2.0625,0.046875 C 2.96875,-0.078125 3.609375,-0.90625 3.609375,-1.9375 3.609375,-2.953125 3,-3.6875 2.0625,-3.75 v -0.59375 c 0,-0.265625 0,-0.40625 0.015625,-0.578125 L 1.734375,-5.0625 C 1.75,-4.875 1.75,-4.703125 1.75,-4.40625 V -3.75 c -0.875,0.109375 -1.546875,0.953125 -1.546875,1.96875 0,1.015625 0.625,1.78125 1.546875,1.84375 v 0.75 c 0,0.328125 0,0.53125 -0.015625,0.75 l 0.34375,0.078125 C 2.0625,1.390625 2.0625,1.375 2.0625,1.046875 Z M 1.75,-0.25 C 1.546875,-0.328125 1.40625,-0.4375 1.296875,-0.609375 c -0.25,-0.359375 -0.375,-0.921875 -0.375,-1.5 0,-0.84375 0.3125,-1.359375 0.828125,-1.375 z m 0.3125,-3.1875 c 0.515625,0.1875 0.828125,0.890625 0.828125,1.828125 0,0.875 -0.296875,1.375 -0.828125,1.40625 z m 0,0"
           id="path29" />
      </g>
    </g>
    <g
       clip-path="url(#clip-16)"
       id="g2115"
       transform="matrix(0.35277777,0,0,0.35277777,-133.41097,121.6451)">
      <path
         fill-rule="nonzero"
         fill="#ffffff"
         fill-opacity="1"
         d="m 438.18359,258.69531 c 0,-5.08984 -4.1289,-9.21484 -9.21875,-9.21484 -5.08984,0 -9.21484,4.125 -9.21484,9.21484 0,5.08985 4.125,9.21485 9.21484,9.21485 5.08985,0 9.21875,-4.125 9.21875,-9.21485 z m 0,0"
         id="path2114" />
    </g>
    <g
       clip-path="url(#clip-17)"
       id="g2116"
       transform="matrix(0.35277777,0,0,0.35277777,-133.41097,121.6451)">
      <path
         fill="none"
         stroke-width="0.3985"
         stroke-linecap="butt"
         stroke-linejoin="miter"
         stroke="#000000"
         stroke-opacity="1"
         stroke-miterlimit="10"
         d="m -37.756441,-200.84942 c 0,6.87816 -5.579603,12.45249 -12.45777,12.45249 -6.878167,0 -12.452492,-5.57433 -12.452492,-12.45249 0,-6.87817 5.574325,-12.45249 12.452492,-12.45249 6.878167,0 12.45777,5.57432 12.45777,12.45249 z m 0,0"
         transform="matrix(0.74,0,0,-0.74,466.12336,110.06674)"
         id="path2115" />
    </g>
    <g
       fill="#000000"
       fill-opacity="1"
       id="g2117"
       transform="matrix(0.35277777,0,0,0.35277777,-133.41097,121.6451)">
      <g
         id="use2116"
         transform="translate(427.45169,259.68069)">
        <path
           d="m 2.78125,-3.6875 -0.8125,2.53125 -0.234375,-1.125 c -0.21875,-1.140625 -0.453125,-1.5 -0.9375,-1.5 C 0.5625,-3.78125 0.375,-3.6875 0.25,-3.515625 0.09375,-3.28125 0.046875,-3.09375 0.03125,-2.484375 V -2.375 h 0.171875 c 0.015625,-0.203125 0.03125,-0.3125 0.0625,-0.421875 0.078125,-0.234375 0.25,-0.375 0.46875,-0.375 0.1875,0 0.328125,0.125 0.46875,0.421875 0.1875,0.375 0.375,1.046875 0.453125,1.59375 l 0.078125,0.625 C 1.71875,-0.46875 1.640625,-0.234375 1.5,0.171875 c -0.15625,0.40625 -0.1875,0.625 -0.1875,0.875 0,0.34375 0.140625,0.5625 0.390625,0.5625 0.296875,0 0.5,-0.375 0.5,-0.953125 0,-0.234375 -0.046875,-0.59375 -0.125,-1.140625 L 3.5625,-3.6875 Z m 0,0"
           id="path27" />
      </g>
    </g>
    <g
       clip-path="url(#clip-18)"
       id="g2118"
       transform="matrix(0.35277777,0,0,0.35277777,-133.41097,121.6451)">
      <path
         fill-rule="nonzero"
         fill="#ffffff"
         fill-opacity="1"
         d="m 438.18359,147.22266 c 0,-5.08985 -4.1289,-9.21485 -9.21875,-9.21485 -5.08984,0 -9.21484,4.125 -9.21484,9.21485 0,5.08984 4.125,9.21484 9.21484,9.21484 5.08985,0 9.21875,-4.125 9.21875,-9.21484 z m 0,0"
         id="path2117" />
    </g>
    <g
       clip-path="url(#clip-19)"
       id="g2119"
       transform="matrix(0.35277777,0,0,0.35277777,-133.41097,121.6451)">
      <path
         fill="none"
         stroke-width="0.3985"
         stroke-linecap="butt"
         stroke-linejoin="miter"
         stroke="#000000"
         stroke-opacity="1"
         stroke-miterlimit="10"
         d="m -37.756441,-50.210698 c 0,6.878168 -5.579603,12.452492 -12.45777,12.452492 -6.878167,0 -12.452492,-5.574324 -12.452492,-12.452492 0,-6.878167 5.574325,-12.452491 12.452492,-12.452491 6.878167,0 12.45777,5.574324 12.45777,12.452491 z m 0,0"
         transform="matrix(0.74,0,0,-0.74,466.12336,110.06674)"
         id="path2118" />
    </g>
    <g
       fill="#000000"
       fill-opacity="1"
       id="g2120"
       transform="matrix(0.35277777,0,0,0.35277777,-133.41097,121.6451)">
      <g
         id="use2119"
         transform="translate(427.04617,149.03143)">
        <path
           d="m -0.0625,-3.390625 c 0.421875,0.015625 0.4375,0.03125 0.609375,0.46875 l 1.1875,3.015625 h 0.21875 C 2.109375,-0.3125 2.109375,-0.328125 2.3125,-0.703125 2.359375,-0.796875 2.40625,-0.90625 2.453125,-1 l 0.4375,-0.8125 C 3.328125,-2.640625 3.5,-3.078125 3.5,-3.34375 c 0,-0.234375 -0.1875,-0.4375 -0.421875,-0.4375 -0.203125,0 -0.390625,0.1875 -0.390625,0.40625 0,0.046875 0,0.078125 0.078125,0.421875 0.03125,0.1875 0.046875,0.296875 0.046875,0.375 0,0.1875 -0.0625,0.375 -0.234375,0.703125 L 2.0625,-0.890625 0.921875,-3.78125 c -0.328125,0.109375 -0.625,0.171875 -0.984375,0.1875 z m 0,0"
           id="path25" />
      </g>
    </g>
    <path
       fill="none"
       stroke-width="0.104031"
       stroke-linecap="butt"
       stroke-linejoin="miter"
       stroke="#000000"
       stroke-opacity="1"
       stroke-miterlimit="10"
       d="m 21.221448,147.36618 h 6.290744"
       id="path2120" />
    <path
       fill-rule="nonzero"
       fill="#000000"
       fill-opacity="1"
       stroke-width="0.104031"
       stroke-linecap="butt"
       stroke-linejoin="miter"
       stroke="#000000"
       stroke-opacity="1"
       stroke-miterlimit="10"
       d="m 26.154825,146.75571 1.435916,0.61047 -1.435916,0.6091 z m 0,0"
       id="path2121" />
    <path
       fill="none"
       stroke-width="0.104031"
       stroke-linecap="butt"
       stroke-linejoin="miter"
       stroke="#000000"
       stroke-opacity="1"
       stroke-miterlimit="10"
       d="m 21.221448,186.69126 h 6.290744"
       id="path2122" />
    <path
       fill-rule="nonzero"
       fill="#000000"
       fill-opacity="1"
       stroke-width="0.104031"
       stroke-linecap="butt"
       stroke-linejoin="miter"
       stroke="#000000"
       stroke-opacity="1"
       stroke-miterlimit="10"
       d="m 26.154825,186.08079 1.435916,0.61047 -1.435916,0.60909 z m 0,0"
       id="path2123" />
    <path
       fill="none"
       stroke-width="0.104031"
       stroke-linecap="butt"
       stroke-linejoin="miter"
       stroke="#000000"
       stroke-opacity="1"
       stroke-miterlimit="10"
       d="m 17.918291,176.88514 v 6.29074"
       id="path2124" />
    <path
       fill-rule="nonzero"
       fill="#000000"
       fill-opacity="1"
       stroke-width="0.104031"
       stroke-linecap="butt"
       stroke-linejoin="miter"
       stroke="#000000"
       stroke-opacity="1"
       stroke-miterlimit="10"
       d="m 18.528762,181.81851 -0.61047,1.43592 -0.609093,-1.43592 z m 0,0"
       id="path2125" />
    <path
       fill="none"
       stroke-width="0.104031"
       stroke-linecap="butt"
       stroke-linejoin="miter"
       stroke="#000000"
       stroke-opacity="1"
       stroke-miterlimit="10"
       d="M 40.832309,147.36618 H 34.541565"
       id="path2126" />
    <path
       fill-rule="nonzero"
       fill="#000000"
       fill-opacity="1"
       stroke-width="0.104031"
       stroke-linecap="butt"
       stroke-linejoin="miter"
       stroke="#000000"
       stroke-opacity="1"
       stroke-miterlimit="10"
       d="m 35.900311,147.97528 -1.437294,-0.6091 1.437294,-0.61047 z m 0,0"
       id="path2127" />
    <path
       fill="none"
       stroke-width="0.104031"
       stroke-linecap="butt"
       stroke-linejoin="miter"
       stroke="#000000"
       stroke-opacity="1"
       stroke-miterlimit="10"
       d="m 41.799692,162.80986 -8.287522,8.28752"
       id="path2128" />
    <path
       fill-rule="nonzero"
       fill="#000000"
       fill-opacity="1"
       stroke-width="0.10403"
       stroke-linecap="butt"
       stroke-linejoin="miter"
       stroke="#000000"
       stroke-opacity="1"
       stroke-miterlimit="10"
       d="m 34.90399,170.56822 -1.44694,0.58428 0.584288,-1.44694 z m 0,0"
       id="path2129" />
    <path
       fill="none"
       stroke-width="0.104031"
       stroke-linecap="butt"
       stroke-linejoin="miter"
       stroke="#000000"
       stroke-opacity="1"
       stroke-miterlimit="10"
       d="M 40.832309,173.58198 H 34.541565"
       id="path2130" />
    <path
       fill-rule="nonzero"
       fill="#000000"
       fill-opacity="1"
       stroke-width="0.104031"
       stroke-linecap="butt"
       stroke-linejoin="miter"
       stroke="#000000"
       stroke-opacity="1"
       stroke-miterlimit="10"
       d="m 35.900311,174.19245 -1.437294,-0.61047 1.437294,-0.60909 z m 0,0"
       id="path2131" />
    <path
       fill="none"
       stroke-width="0.104031"
       stroke-linecap="butt"
       stroke-linejoin="miter"
       stroke="#000000"
       stroke-opacity="1"
       stroke-miterlimit="10"
       d="m 31.027568,150.66934 v 19.39864"
       id="path2132" />
    <path
       fill-rule="nonzero"
       fill="#000000"
       fill-opacity="1"
       stroke-width="0.104031"
       stroke-linecap="butt"
       stroke-linejoin="miter"
       stroke="#000000"
       stroke-opacity="1"
       stroke-miterlimit="10"
       d="m 31.63666,168.70924 -0.609092,1.43729 -0.610471,-1.43729 z m 0,0"
       id="path2133" />
    <path
       fill="none"
       stroke-width="0.104031"
       stroke-linecap="butt"
       stroke-linejoin="miter"
       stroke="#000000"
       stroke-opacity="1"
       stroke-miterlimit="10"
       d="m 31.027568,176.88514 v 6.29074"
       id="path2134" />
    <path
       fill-rule="nonzero"
       fill="#000000"
       fill-opacity="1"
       stroke-width="0.104031"
       stroke-linecap="butt"
       stroke-linejoin="miter"
       stroke="#000000"
       stroke-opacity="1"
       stroke-miterlimit="10"
       d="m 31.63666,181.81851 -0.609092,1.43592 -0.610471,-1.43592 z m 0,0"
       id="path2135" />
    <path
       fill="none"
       stroke-width="0.104031"
       stroke-linecap="butt"
       stroke-linejoin="miter"
       stroke="#000000"
       stroke-opacity="1"
       stroke-miterlimit="10"
       d="M 40.832309,186.69126 H 34.541565"
       id="path2136" />
    <path
       fill-rule="nonzero"
       fill="#000000"
       fill-opacity="1"
       stroke-width="0.104031"
       stroke-linecap="butt"
       stroke-linejoin="miter"
       stroke="#000000"
       stroke-opacity="1"
       stroke-miterlimit="10"
       d="m 35.900311,187.30035 -1.437294,-0.60909 1.437294,-0.61047 z m 0,0"
       id="path2137" />
    <path
       fill="none"
       stroke-width="0.104031"
       stroke-linecap="butt"
       stroke-linejoin="miter"
       stroke="#000000"
       stroke-opacity="1"
       stroke-miterlimit="10"
       d="m 31.027568,189.99304 v 6.29212"
       id="path2138" />
    <path
       fill-rule="nonzero"
       fill="#000000"
       fill-opacity="1"
       stroke-width="0.104031"
       stroke-linecap="butt"
       stroke-linejoin="miter"
       stroke="#000000"
       stroke-opacity="1"
       stroke-miterlimit="10"
       d="m 31.63666,194.92641 -0.609092,1.43592 -0.610471,-1.43592 z m 0,0"
       id="path2139" />
    <path
       fill="none"
       stroke-width="0.104031"
       stroke-linecap="butt"
       stroke-linejoin="miter"
       stroke="#000000"
       stroke-opacity="1"
       stroke-miterlimit="10"
       d="m 21.221448,199.79916 h 6.290744"
       id="path2140" />
    <path
       fill-rule="nonzero"
       fill="#000000"
       fill-opacity="1"
       stroke-width="0.104031"
       stroke-linecap="butt"
       stroke-linejoin="miter"
       stroke="#000000"
       stroke-opacity="1"
       stroke-miterlimit="10"
       d="m 26.154825,199.18868 1.435916,0.61047 -1.435916,0.60909 z m 0,0"
       id="path2141" />
    <path
       fill="none"
       stroke-width="0.104031"
       stroke-linecap="butt"
       stroke-linejoin="miter"
       stroke="#000000"
       stroke-opacity="1"
       stroke-miterlimit="10"
       d="m 17.918291,209.6039 v -6.29075"
       id="path2142" />
    <path
       fill-rule="nonzero"
       fill="#000000"
       fill-opacity="1"
       stroke-width="0.104031"
       stroke-linecap="butt"
       stroke-linejoin="miter"
       stroke="#000000"
       stroke-opacity="1"
       stroke-miterlimit="10"
       d="m 17.309199,204.6719 0.609093,-1.43729 0.61047,1.43729 z m 0,0"
       id="path2143" />
    <g
       fill="#000000"
       fill-opacity="1"
       id="g2143"
       transform="matrix(0.35277777,0,0,0.35277777,-133.41097,121.6451)">
      <g
         id="use2143"
         transform="translate(507.29547,239.66516)">
        <path
           d="M 6.015625,-4.34375 H 4.78125 v 0.109375 c 0.359375,0.03125 0.4375,0.078125 0.4375,0.265625 0,0.109375 -0.046875,0.28125 -0.140625,0.453125 L 3.84375,-1.078125 3.578125,-3.75 3.5625,-3.84375 c 0,-0.265625 0.09375,-0.359375 0.453125,-0.390625 V -4.34375 H 2.4375 v 0.109375 c 0.390625,0.015625 0.453125,0.0625 0.5,0.390625 L 3,-3.390625 1.859375,-1.078125 1.5625,-3.765625 C 1.546875,-3.8125 1.546875,-3.859375 1.546875,-3.859375 c 0,-0.265625 0.09375,-0.328125 0.484375,-0.375 V -4.34375 h -1.5625 v 0.109375 C 0.6875,-4.203125 0.75,-4.1875 0.8125,-4.125 0.890625,-4.046875 0.921875,-3.921875 1,-3.3125 L 1.40625,0.125 h 0.125 l 1.484375,-3.015625 h 0.03125 L 3.375,0.125 H 3.5 L 5.515625,-3.75 c 0.1875,-0.34375 0.25,-0.40625 0.5,-0.484375 z m 0,0"
           id="path11" />
      </g>
    </g>
    <path
       fill="none"
       stroke-width="0.104031"
       stroke-linecap="butt"
       stroke-linejoin="miter"
       stroke="#000000"
       stroke-opacity="1"
       stroke-miterlimit="10"
       d="M 26.892075,207.23505 H 48.790479 V 182.55577 H 26.892075 Z m 0,0"
       id="path2144" />
    <g
       fill="#000000"
       fill-opacity="1"
       id="g2144"
       transform="matrix(0.35277777,0,0,0.35277777,-133.41097,121.6451)">
      <g
         id="use2144"
         transform="translate(513.08154,251.52959)">
        <path
           d="M 4.203125,-4.34375 H 0.90625 v 0.109375 c 0.421875,0.046875 0.515625,0.09375 0.515625,0.28125 0,0.0625 -0.046875,0.296875 -0.078125,0.421875 l -0.8125,2.9375 C 0.421875,-0.21875 0.359375,-0.171875 0,-0.109375 V 0 H 3.359375 L 3.765625,-1.078125 3.671875,-1.125 c -0.3125,0.421875 -0.484375,0.59375 -0.78125,0.71875 -0.234375,0.125 -0.6875,0.1875 -1.1875,0.1875 -0.375,0 -0.53125,-0.0625 -0.53125,-0.21875 0,-0.078125 0.0625,-0.390625 0.234375,-0.984375 0.09375,-0.28125 0.140625,-0.5 0.21875,-0.75 0.234375,0 0.4375,0.015625 0.515625,0.015625 0.25,-0.015625 0.4375,0.03125 0.515625,0.09375 0.03125,0.03125 0.046875,0.09375 0.046875,0.203125 0,0.125 -0.015625,0.203125 -0.046875,0.359375 l 0.140625,0.03125 0.4375,-1.546875 L 3.125,-3.046875 c -0.25,0.5625 -0.3125,0.609375 -0.921875,0.640625 -0.078125,0 -0.296875,0 -0.515625,0.015625 L 2.125,-3.9375 c 0.03125,-0.15625 0.109375,-0.1875 0.484375,-0.1875 1.03125,0 1.265625,0.09375 1.265625,0.5 0,0.078125 0,0.171875 -0.015625,0.296875 H 4 Z m 0,0"
           id="path9" />
      </g>
    </g>
    <path
       fill="none"
       stroke-width="0.104031"
       stroke-linecap="butt"
       stroke-linejoin="miter"
       stroke="#000000"
       stroke-opacity="1"
       stroke-miterlimit="10"
       d="M 26.007375,211.38157 H 50.1947 V 169.44649 H 26.007375 Z m 0,0"
       id="path2145" />
    <g
       fill="#000000"
       fill-opacity="1"
       id="g2145"
       transform="matrix(0.35277777,0,0,0.35277777,-133.41097,121.6451)">
      <g
         id="use2145"
         transform="translate(516.81042,263.28152)">
        <path
           d="M 0.859375,-4.234375 C 1.28125,-4.1875 1.375,-4.140625 1.375,-3.953125 c 0,0.09375 -0.03125,0.25 -0.078125,0.421875 l -0.8125,2.9375 c -0.125,0.375 -0.171875,0.421875 -0.53125,0.484375 V 0 H 1.625 c 0.78125,0 1.484375,-0.203125 2,-0.578125 0.640625,-0.46875 1.03125,-1.203125 1.03125,-1.96875 0,-1.09375 -0.765625,-1.796875 -1.953125,-1.796875 H 0.859375 Z M 2.078125,-3.9375 C 2.125,-4.09375 2.21875,-4.140625 2.484375,-4.140625 c 0.375,0 0.703125,0.09375 0.921875,0.25 0.328125,0.234375 0.5,0.65625 0.5,1.1875 C 3.90625,-2 3.625,-1.25 3.1875,-0.796875 c -0.390625,0.390625 -0.9375,0.59375 -1.625,0.59375 -0.3125,0 -0.4375,-0.0625 -0.4375,-0.234375 0,-0.09375 0.03125,-0.234375 0.15625,-0.640625 z m 0,0"
           id="path7" />
      </g>
    </g>
    <g
       clip-path="url(#clip-20)"
       id="g2146"
       transform="matrix(0.35277777,0,0,0.35277777,-133.41097,121.6451)">
      <path
         fill="none"
         stroke-width="0.3985"
         stroke-linecap="butt"
         stroke-linejoin="miter"
         stroke="#000000"
         stroke-opacity="1"
         stroke-miterlimit="10"
         d="M -22.617083,-210.88426 H 78.802892 V 15.841878 H -22.617083 Z m 0,0"
         transform="matrix(0.74,0,0,-0.74,466.12336,110.06674)"
         id="path2146" />
    </g>
  </g>
</svg>
